G04*
G04 #@! TF.GenerationSoftware,Altium Limited,Altium Designer,19.0.10 (269)*
G04*
G04 Layer_Color=65535*
%FSLAX24Y24*%
%MOIN*%
G70*
G01*
G75*
%ADD10C,0.0079*%
%ADD11C,0.0049*%
%ADD12C,0.0060*%
D10*
X875Y-860D02*
G03*
X875Y-860I-39J0D01*
G01*
X-2368Y-1505D02*
Y-1316D01*
X-1896Y-1505D02*
Y-1316D01*
X-669Y1476D02*
Y1555D01*
X-906Y1476D02*
Y1555D01*
X-1398Y748D02*
X-1319D01*
X-1398Y512D02*
X-1319D01*
X-49Y-1848D02*
X29D01*
X-49Y-1612D02*
X29D01*
X-845Y-1484D02*
Y-1405D01*
X-609Y-1484D02*
Y-1405D01*
X-1398Y315D02*
X-1319D01*
X-1398Y79D02*
X-1319D01*
D11*
X1671Y-1111D02*
Y-938D01*
X1285Y-1111D02*
Y-938D01*
X1409D01*
X1547D02*
X1671D01*
X1285Y-1111D02*
X1409D01*
X1547D02*
X1671D01*
X1285Y-2333D02*
Y-2159D01*
X1671Y-2333D02*
Y-2159D01*
X1547Y-2333D02*
X1671D01*
X1285D02*
X1409D01*
X1547Y-2159D02*
X1671D01*
X1285D02*
X1409D01*
X-722Y719D02*
X722D01*
X-722Y-750D02*
X722D01*
X-722D02*
Y719D01*
X722Y-750D02*
Y719D01*
X-1593Y1185D02*
Y1309D01*
Y1447D02*
Y1571D01*
X-1419Y1185D02*
Y1309D01*
Y1447D02*
Y1571D01*
X-1593D02*
X-1419D01*
X-1593Y1185D02*
X-1419D01*
X1581Y-155D02*
Y18D01*
X1195Y-155D02*
Y18D01*
X1319D01*
X1457D02*
X1581D01*
X1195Y-155D02*
X1319D01*
X1457D02*
X1581D01*
X1151Y-155D02*
Y18D01*
X765Y-155D02*
Y18D01*
X889D01*
X1027D02*
X1151D01*
X765Y-155D02*
X889D01*
X1027D02*
X1151D01*
X-1795Y-1387D02*
Y-1263D01*
Y-1125D02*
Y-1001D01*
X-1622Y-1387D02*
Y-1263D01*
Y-1125D02*
Y-1001D01*
X-1795D02*
X-1622D01*
X-1795Y-1387D02*
X-1622D01*
Y-1568D02*
Y-1444D01*
Y-1830D02*
Y-1706D01*
X-1795Y-1568D02*
Y-1444D01*
Y-1830D02*
Y-1706D01*
Y-1830D02*
X-1622D01*
X-1795Y-1444D02*
X-1622D01*
X1270Y-808D02*
X1394D01*
X1008D02*
X1132D01*
X1270Y-635D02*
X1394D01*
X1008D02*
X1132D01*
X1008Y-808D02*
Y-635D01*
X1394Y-808D02*
Y-635D01*
X1339Y552D02*
X1463D01*
X1077D02*
X1201D01*
X1339Y725D02*
X1463D01*
X1077D02*
X1201D01*
X1077Y552D02*
Y725D01*
X1463Y552D02*
Y725D01*
X687Y1309D02*
Y1433D01*
Y1047D02*
Y1171D01*
X514Y1309D02*
Y1433D01*
Y1047D02*
Y1171D01*
Y1047D02*
X687D01*
X514Y1433D02*
X687D01*
X176Y1309D02*
Y1433D01*
Y1047D02*
Y1171D01*
X3Y1309D02*
Y1433D01*
Y1047D02*
Y1171D01*
Y1047D02*
X176D01*
X3Y1433D02*
X176D01*
X-1533Y-1043D02*
X-1409D01*
X-1272D02*
X-1148D01*
X-1533Y-1217D02*
X-1409D01*
X-1272D02*
X-1148D01*
Y-1043D01*
X-1533Y-1217D02*
Y-1043D01*
X1259Y-330D02*
Y-206D01*
Y-592D02*
Y-468D01*
X1086Y-330D02*
Y-206D01*
Y-592D02*
Y-468D01*
Y-592D02*
X1259D01*
X1086Y-206D02*
X1259D01*
X1657Y705D02*
X1624Y738D01*
X1558D01*
X1526Y705D01*
Y574D01*
X1558Y541D01*
X1624D01*
X1657Y574D01*
X1722D02*
X1755Y541D01*
X1821D01*
X1854Y574D01*
Y705D01*
X1821Y738D01*
X1755D01*
X1722Y705D01*
Y673D01*
X1755Y640D01*
X1854D01*
X-1700Y1060D02*
X-1732Y1092D01*
X-1798D01*
X-1831Y1060D01*
Y928D01*
X-1798Y896D01*
X-1732D01*
X-1700Y928D01*
X-1634Y896D02*
X-1568D01*
X-1601D01*
Y1092D01*
X-1634Y1060D01*
X-1470Y928D02*
X-1437Y896D01*
X-1372D01*
X-1339Y928D01*
Y1060D01*
X-1372Y1092D01*
X-1437D01*
X-1470Y1060D01*
Y1027D01*
X-1437Y994D01*
X-1339D01*
X-1690Y-102D02*
X-1722Y-69D01*
X-1788D01*
X-1821Y-102D01*
Y-233D01*
X-1788Y-266D01*
X-1722D01*
X-1690Y-233D01*
X-1493Y-69D02*
X-1558Y-102D01*
X-1624Y-167D01*
Y-233D01*
X-1591Y-266D01*
X-1526D01*
X-1493Y-233D01*
Y-200D01*
X-1526Y-167D01*
X-1624D01*
X-1407Y1634D02*
X-1604D01*
Y1732D01*
X-1571Y1765D01*
X-1506D01*
X-1473Y1732D01*
Y1634D01*
Y1699D02*
X-1407Y1765D01*
Y1831D02*
Y1896D01*
Y1863D01*
X-1604D01*
X-1571Y1831D01*
X1621Y-671D02*
X1588Y-639D01*
X1523D01*
X1490Y-671D01*
Y-803D01*
X1523Y-835D01*
X1588D01*
X1621Y-803D01*
X1687Y-835D02*
X1752D01*
X1720D01*
Y-639D01*
X1687Y-671D01*
X1982Y-835D02*
X1851D01*
X1982Y-704D01*
Y-671D01*
X1949Y-639D01*
X1884D01*
X1851Y-671D01*
X1063Y-964D02*
X1030Y-931D01*
X965D01*
X932Y-964D01*
Y-1095D01*
X965Y-1128D01*
X1030D01*
X1063Y-1095D01*
X1129Y-1128D02*
X1194D01*
X1161D01*
Y-931D01*
X1129Y-964D01*
X997Y-2184D02*
X965Y-2151D01*
X899D01*
X866Y-2184D01*
Y-2315D01*
X899Y-2348D01*
X965D01*
X997Y-2315D01*
X1194Y-2348D02*
X1063D01*
X1194Y-2217D01*
Y-2184D01*
X1161Y-2151D01*
X1096D01*
X1063Y-2184D01*
X817Y-1763D02*
X1014Y-1632D01*
X817D02*
X1014Y-1763D01*
Y-1567D02*
Y-1501D01*
Y-1534D01*
X817D01*
X850Y-1567D01*
X1230Y277D02*
Y80D01*
X1361D01*
X1558Y277D02*
X1427D01*
Y178D01*
X1492Y211D01*
X1525D01*
X1558Y178D01*
Y113D01*
X1525Y80D01*
X1460D01*
X1427Y113D01*
X1356Y-429D02*
X1323Y-462D01*
Y-527D01*
X1356Y-560D01*
X1487D01*
X1520Y-527D01*
Y-462D01*
X1487Y-429D01*
X1356Y-363D02*
X1323Y-330D01*
Y-265D01*
X1356Y-232D01*
X1389D01*
X1422Y-265D01*
Y-298D01*
Y-265D01*
X1454Y-232D01*
X1487D01*
X1520Y-265D01*
Y-330D01*
X1487Y-363D01*
X830Y277D02*
Y80D01*
X961D01*
X1027D02*
X1092D01*
X1060D01*
Y277D01*
X1027Y244D01*
X-489Y1578D02*
X-522Y1545D01*
Y1480D01*
X-489Y1447D01*
X-358D01*
X-325Y1480D01*
Y1545D01*
X-358Y1578D01*
X-325Y1775D02*
Y1644D01*
X-456Y1775D01*
X-489D01*
X-522Y1742D01*
Y1676D01*
X-489Y1644D01*
Y1840D02*
X-522Y1873D01*
Y1939D01*
X-489Y1972D01*
X-358D01*
X-325Y1939D01*
Y1873D01*
X-358Y1840D01*
X-489D01*
X-1774Y-809D02*
X-1807Y-842D01*
Y-907D01*
X-1774Y-940D01*
X-1643D01*
X-1610Y-907D01*
Y-842D01*
X-1643Y-809D01*
X-1610Y-743D02*
Y-678D01*
Y-710D01*
X-1807D01*
X-1774Y-743D01*
Y-579D02*
X-1807Y-546D01*
Y-481D01*
X-1774Y-448D01*
X-1741D01*
X-1708Y-481D01*
X-1676Y-448D01*
X-1643D01*
X-1610Y-481D01*
Y-546D01*
X-1643Y-579D01*
X-1676D01*
X-1708Y-546D01*
X-1741Y-579D01*
X-1774D01*
X-1708Y-546D02*
Y-481D01*
X-1768Y-2251D02*
X-1801Y-2283D01*
Y-2349D01*
X-1768Y-2382D01*
X-1637D01*
X-1604Y-2349D01*
Y-2283D01*
X-1637Y-2251D01*
X-1604Y-2185D02*
Y-2120D01*
Y-2152D01*
X-1801D01*
X-1768Y-2185D01*
X-1801Y-2021D02*
Y-1890D01*
X-1768D01*
X-1637Y-2021D01*
X-1604D01*
X-1389Y-818D02*
X-1422Y-785D01*
X-1487D01*
X-1520Y-818D01*
Y-949D01*
X-1487Y-982D01*
X-1422D01*
X-1389Y-949D01*
X-1192Y-785D02*
X-1323D01*
Y-884D01*
X-1258Y-851D01*
X-1225D01*
X-1192Y-884D01*
Y-949D01*
X-1225Y-982D01*
X-1290D01*
X-1323Y-949D01*
X525Y1647D02*
X492Y1614D01*
Y1548D01*
X525Y1516D01*
X656D01*
X689Y1548D01*
Y1614D01*
X656Y1647D01*
X525Y1712D02*
X492Y1745D01*
Y1811D01*
X525Y1844D01*
X558D01*
X591Y1811D01*
X623Y1844D01*
X656D01*
X689Y1811D01*
Y1745D01*
X656Y1712D01*
X623D01*
X591Y1745D01*
X558Y1712D01*
X525D01*
X591Y1745D02*
Y1811D01*
X16Y1651D02*
X-17Y1618D01*
Y1553D01*
X16Y1520D01*
X147D01*
X180Y1553D01*
Y1618D01*
X147Y1651D01*
X-17Y1717D02*
Y1848D01*
X16D01*
X147Y1717D01*
X180D01*
X-128Y984D02*
Y820D01*
X-95Y787D01*
X-30D01*
X3Y820D01*
Y984D01*
X69Y787D02*
X134D01*
X102D01*
Y984D01*
X69Y951D01*
X-2280Y-733D02*
X-2149Y-930D01*
Y-733D02*
X-2280Y-930D01*
X-1952D02*
X-2083D01*
X-1952Y-799D01*
Y-766D01*
X-1985Y-733D01*
X-2050D01*
X-2083Y-766D01*
X-131Y-2031D02*
X-164Y-1998D01*
X-230D01*
X-263Y-2031D01*
Y-2162D01*
X-230Y-2195D01*
X-164D01*
X-131Y-2162D01*
X-66Y-2195D02*
X-0D01*
X-33D01*
Y-1998D01*
X-66Y-2031D01*
X229Y-1998D02*
X98D01*
Y-2096D01*
X164Y-2064D01*
X197D01*
X229Y-2096D01*
Y-2162D01*
X197Y-2195D01*
X131D01*
X98Y-2162D01*
X-1158Y-1611D02*
X-1191Y-1644D01*
Y-1709D01*
X-1158Y-1742D01*
X-1027D01*
X-994Y-1709D01*
Y-1644D01*
X-1027Y-1611D01*
X-994Y-1545D02*
Y-1480D01*
Y-1513D01*
X-1191D01*
X-1158Y-1545D01*
X-994Y-1283D02*
X-1191D01*
X-1092Y-1381D01*
Y-1250D01*
D12*
X1131Y-1698D02*
Y-1572D01*
X1454Y-2061D02*
X1502D01*
X1824Y-1698D02*
Y-1572D01*
X1454Y-1210D02*
X1502D01*
X-591Y1614D02*
Y1978D01*
Y1053D02*
Y1417D01*
X-984Y1614D02*
Y1978D01*
Y1053D02*
Y1417D01*
Y1053D02*
X-591D01*
X-984Y1978D02*
X-591D01*
X-1821Y827D02*
X-1457D01*
X-1260D02*
X-896D01*
X-1821Y433D02*
X-1457D01*
X-1260D02*
X-896D01*
Y827D01*
X-1821Y433D02*
Y827D01*
X88Y-1927D02*
X453D01*
X-473D02*
X-108D01*
X88Y-1533D02*
X453D01*
X-473D02*
X-108D01*
X-473Y-1927D02*
Y-1533D01*
X453Y-1927D02*
Y-1533D01*
X-924Y-1907D02*
Y-1543D01*
Y-1346D02*
Y-982D01*
X-530Y-1907D02*
Y-1543D01*
Y-1346D02*
Y-982D01*
X-924D02*
X-530D01*
X-924Y-1907D02*
X-530D01*
X-1821Y394D02*
X-1457D01*
X-1260D02*
X-896D01*
X-1821Y0D02*
X-1457D01*
X-1260D02*
X-896D01*
Y394D01*
X-1821Y0D02*
Y394D01*
M02*
