M48
;Layer_Color=9474304
;FILE_FORMAT=2:4
INCH,TZ
;TYPE=PLATED
T4F00S00C0.0098
%
T04
X-420Y-2421
X2264
X-1870Y-2006
X-2303Y-2402
Y-287
X-1939Y413
X-2303Y1368
Y2047
X-1921
X-1250Y2087
X-807
X-157
X-127Y1366
X-128Y1122
X-620Y1378
X-1199Y929
X-1810Y1290
X-1407Y-127
X-263Y-50
X67Y-72
X924Y-303
X1440Y-380
X1821Y-389
X2244
Y249
X1821
X1148Y190
X1526Y815
X1526Y1161
X817Y1122
Y1366
X1201Y2077
X2244Y2077
Y1299
X1969Y837
X1813Y-966
X1526Y-758
X1171Y-905
X2264Y-1171
X1144Y-2246
X320Y-2190
X-728Y-2047
X-1070Y-1850
X-1190Y-2350
X-1490Y-1350
X-374Y-1374
X-360Y-1130
M30
