G04*
G04 #@! TF.GenerationSoftware,Altium Limited,Altium Designer,19.0.10 (269)*
G04*
G04 Layer_Color=8421504*
%FSLAX24Y24*%
%MOIN*%
G70*
G01*
G75*
%ADD13R,0.0106X0.0118*%
%ADD14R,0.0551X0.0295*%
%ADD15R,0.0335X0.0374*%
%ADD16C,0.0079*%
%ADD17R,0.0118X0.0106*%
%ADD18R,0.0315X0.0295*%
%ADD19R,0.0295X0.0315*%
D13*
X1366Y-1025D02*
D03*
X1590D02*
D03*
X1590Y-2246D02*
D03*
X1366D02*
D03*
X1275Y-69D02*
D03*
X1500D02*
D03*
X845Y-69D02*
D03*
X1070D02*
D03*
X1313Y-721D02*
D03*
X1089D02*
D03*
X1383Y639D02*
D03*
X1158D02*
D03*
X-1453Y-1130D02*
D03*
X-1228D02*
D03*
D14*
X-2132Y-1696D02*
D03*
Y-1125D02*
D03*
D15*
X1704Y-1921D02*
D03*
X1252D02*
D03*
Y-1350D02*
D03*
X1704D02*
D03*
D16*
X-620Y620D02*
D03*
X620Y-344D02*
D03*
X482D02*
D03*
X620Y-620D02*
D03*
X-482Y620D02*
D03*
X-344D02*
D03*
X-207D02*
D03*
X-69D02*
D03*
X69D02*
D03*
X207D02*
D03*
X344D02*
D03*
X482D02*
D03*
X620D02*
D03*
X-620Y482D02*
D03*
X-482D02*
D03*
X-344D02*
D03*
X-207D02*
D03*
X-69D02*
D03*
X69D02*
D03*
X207D02*
D03*
X344D02*
D03*
X482D02*
D03*
X620D02*
D03*
X-620Y344D02*
D03*
X-482D02*
D03*
X-344D02*
D03*
X-207D02*
D03*
X-69D02*
D03*
X69D02*
D03*
X207D02*
D03*
X482D02*
D03*
X620D02*
D03*
X-620Y207D02*
D03*
X-482D02*
D03*
X-344D02*
D03*
X-207D02*
D03*
X-69D02*
D03*
X69D02*
D03*
X207D02*
D03*
X344D02*
D03*
X482D02*
D03*
X620D02*
D03*
X-620Y69D02*
D03*
X-482D02*
D03*
X-344D02*
D03*
X-207D02*
D03*
X-69D02*
D03*
X69D02*
D03*
X207D02*
D03*
X344D02*
D03*
X482D02*
D03*
X620D02*
D03*
X-620Y-69D02*
D03*
X-482D02*
D03*
X-344D02*
D03*
X-207D02*
D03*
X-69D02*
D03*
X69D02*
D03*
X207D02*
D03*
X344D02*
D03*
X482D02*
D03*
X620D02*
D03*
X-620Y-207D02*
D03*
X-482D02*
D03*
X-344D02*
D03*
X-207D02*
D03*
X-69D02*
D03*
X69D02*
D03*
X207D02*
D03*
X344D02*
D03*
X-620Y-344D02*
D03*
X-482D02*
D03*
X-344D02*
D03*
X-207D02*
D03*
X-69D02*
D03*
X69D02*
D03*
X207D02*
D03*
X-620Y-482D02*
D03*
X-482D02*
D03*
X-344D02*
D03*
X-207D02*
D03*
X-69D02*
D03*
X69D02*
D03*
X207D02*
D03*
X344D02*
D03*
X-620Y-620D02*
D03*
X-482D02*
D03*
X-344D02*
D03*
X-207D02*
D03*
X-69D02*
D03*
X69D02*
D03*
X207D02*
D03*
X344D02*
D03*
X482D02*
D03*
D17*
X-1506Y1266D02*
D03*
Y1490D02*
D03*
X-1709Y-1306D02*
D03*
Y-1082D02*
D03*
Y-1525D02*
D03*
Y-1749D02*
D03*
X600Y1352D02*
D03*
Y1128D02*
D03*
X90Y1352D02*
D03*
Y1128D02*
D03*
X1173Y-287D02*
D03*
Y-511D02*
D03*
D18*
X-787Y1250D02*
D03*
Y1781D02*
D03*
X-727Y-1179D02*
D03*
Y-1710D02*
D03*
D19*
X-1093Y630D02*
D03*
X-1624D02*
D03*
X-276Y-1730D02*
D03*
X256D02*
D03*
X-1093Y197D02*
D03*
X-1624D02*
D03*
M02*
