G04*
G04 #@! TF.GenerationSoftware,Altium Limited,Altium Designer,19.0.10 (269)*
G04*
G04 Layer_Physical_Order=1*
G04 Layer_Color=255*
%FSLAX24Y24*%
%MOIN*%
G70*
G01*
G75*
%ADD10C,0.0079*%
%ADD12C,0.0049*%
%ADD13R,0.0335X0.0374*%
%ADD14R,0.0106X0.0118*%
%ADD15R,0.0551X0.0295*%
%ADD16C,0.0079*%
%ADD17R,0.0295X0.0315*%
%ADD18R,0.0256X0.0197*%
%ADD19R,0.0315X0.0295*%
%ADD20R,0.0118X0.0106*%
%ADD29C,0.0118*%
%ADD30C,0.0090*%
%ADD31C,0.0080*%
%ADD32C,0.0300*%
%ADD33R,0.0315X0.0300*%
%ADD34R,0.0630X0.0492*%
%ADD35R,0.0079X0.0177*%
%ADD36C,0.0197*%
%ADD37C,0.0098*%
%ADD38C,0.0165*%
%ADD39C,0.0169*%
G36*
X-630Y2165D02*
Y2008D01*
X-737D01*
Y1781D01*
Y1555D01*
X-630D01*
Y1476D01*
X-1309D01*
X-1338Y1511D01*
X-1319Y1555D01*
X-1300D01*
Y1781D01*
Y2008D01*
X-1456D01*
Y2170D01*
X-1443Y2184D01*
X-679D01*
X-630Y2165D01*
D02*
G37*
G36*
X142Y1667D02*
Y1484D01*
X140D01*
Y1352D01*
X90D01*
Y1302D01*
X-89D01*
X-98Y1297D01*
X-105Y1298D01*
X-128Y1300D01*
X-147Y1298D01*
X-153Y1300D01*
X-193Y1331D01*
X-197Y1339D01*
Y1394D01*
X-93Y1497D01*
X-48Y1471D01*
Y1402D01*
X40D01*
Y1484D01*
X-35D01*
X-62Y1529D01*
X96Y1686D01*
X142Y1667D01*
D02*
G37*
G36*
X752Y1529D02*
X725Y1484D01*
X650D01*
Y1402D01*
X738D01*
Y1471D01*
X783Y1497D01*
X886Y1395D01*
Y1339D01*
X882Y1331D01*
X842Y1300D01*
X836Y1298D01*
X817Y1300D01*
X794Y1298D01*
X788Y1297D01*
X779Y1302D01*
X600D01*
Y1352D01*
X550D01*
Y1484D01*
X547D01*
Y1668D01*
X593Y1687D01*
X752Y1529D01*
D02*
G37*
G36*
X-1821Y2170D02*
Y1522D01*
X-1820Y1503D01*
X-1815Y1485D01*
X-1808Y1468D01*
X-1799Y1452D01*
X-1787Y1438D01*
X-1628Y1280D01*
Y1024D01*
X-1634D01*
Y730D01*
X-1713D01*
Y737D01*
X-2165D01*
Y551D01*
Y89D01*
Y-88D01*
X-1939D01*
Y-188D01*
X-2165D01*
Y-374D01*
X-2206Y-396D01*
X-2420D01*
X-2420Y-396D01*
Y2184D01*
X-1834D01*
X-1821Y2170D01*
D02*
G37*
G36*
X1638Y1198D02*
Y786D01*
X1561Y708D01*
X1514Y728D01*
Y776D01*
X1477D01*
X1471Y779D01*
X1449Y803D01*
X1437Y826D01*
X1437Y837D01*
X1436Y857D01*
X1431Y876D01*
X1423Y895D01*
X1413Y912D01*
X1413Y912D01*
Y1359D01*
X1459Y1378D01*
X1638Y1198D01*
D02*
G37*
G36*
X-1043Y876D02*
X-1040Y867D01*
X-1029Y850D01*
X-1016Y834D01*
X-1001Y821D01*
X-983Y811D01*
X-965Y803D01*
X-945Y798D01*
X-925Y797D01*
X-905Y798D01*
X-886Y803D01*
X-867Y811D01*
X-850Y821D01*
X-834Y834D01*
X-833Y836D01*
X-787Y845D01*
X-768Y842D01*
X-695Y769D01*
X-695Y769D01*
X-580Y653D01*
Y620D01*
X-599Y601D01*
X-1013D01*
X-1181Y769D01*
Y948D01*
X-1135Y967D01*
X-1043Y876D01*
D02*
G37*
G36*
X2361Y131D02*
X2234D01*
X2234Y131D01*
X1588D01*
X1562Y129D01*
X1536Y124D01*
X1511Y116D01*
X1488Y104D01*
X1466Y90D01*
X1453Y78D01*
X1407Y69D01*
X1407Y69D01*
X1144D01*
Y69D01*
X921D01*
X902Y115D01*
X1116Y329D01*
X1432D01*
X1448Y331D01*
X1464Y334D01*
X1479Y341D01*
X1493Y349D01*
X1505Y360D01*
X1815Y670D01*
X1826Y682D01*
X1834Y696D01*
X1841Y711D01*
X1845Y727D01*
X1846Y743D01*
Y1241D01*
X1845Y1258D01*
X1841Y1273D01*
X1834Y1288D01*
X1826Y1302D01*
X1815Y1315D01*
X1039Y2091D01*
Y2184D01*
X2361D01*
Y131D01*
D02*
G37*
G36*
X1407Y-207D02*
Y-207D01*
X1407Y-207D01*
X1453Y-216D01*
X1466Y-227D01*
X1488Y-242D01*
X1511Y-253D01*
X1536Y-262D01*
X1562Y-267D01*
X1588Y-268D01*
X2234D01*
X2234Y-268D01*
X2361D01*
Y-2519D01*
X1014D01*
Y-2187D01*
X1234D01*
Y-2196D01*
X1366D01*
Y-2246D01*
X1416D01*
Y-2384D01*
X1722D01*
Y-2187D01*
X1950D01*
Y-1666D01*
X1950Y-1655D01*
X1950D01*
Y-1616D01*
X1950D01*
Y-1400D01*
X1704D01*
Y-1300D01*
X1950D01*
Y-1084D01*
X1722D01*
Y-1075D01*
X1590D01*
Y-1025D01*
X1540D01*
Y-887D01*
X1483D01*
X1445Y-859D01*
Y-771D01*
X1313D01*
Y-671D01*
X1445D01*
Y-584D01*
X1310D01*
Y-561D01*
X1035D01*
Y-584D01*
X957D01*
Y-603D01*
X891D01*
X888Y-600D01*
X887Y-580D01*
X882Y-560D01*
X874Y-542D01*
X864Y-525D01*
X851Y-509D01*
X835Y-496D01*
X818Y-486D01*
X800Y-478D01*
X780Y-473D01*
X760Y-472D01*
X740Y-473D01*
X720Y-478D01*
X698Y-433D01*
X704Y-428D01*
X716Y-414D01*
X726Y-398D01*
X727Y-394D01*
X620D01*
Y-344D01*
X590Y-314D01*
X590Y-207D01*
X716Y-207D01*
X716Y-207D01*
X1035D01*
Y-461D01*
X1310D01*
Y-207D01*
X1407D01*
X1407Y-207D01*
D02*
G37*
G36*
X-1846Y-1469D02*
X-2096D01*
X-2131Y-1430D01*
X-2133Y-1410D01*
X-2135Y-1401D01*
X-2119Y-1371D01*
X-2101Y-1351D01*
X-1846D01*
Y-1469D01*
D02*
G37*
G36*
X-1416Y-1515D02*
X-1521Y-1620D01*
X-1571Y-1599D01*
Y-1575D01*
X-1709D01*
Y-1475D01*
X-1571D01*
Y-1268D01*
X-1416D01*
Y-1515D01*
D02*
G37*
G36*
X-82Y-1166D02*
X-101Y-1212D01*
X-114D01*
Y-1300D01*
X18D01*
Y-1400D01*
X-114D01*
Y-1488D01*
X-162Y-1494D01*
X-226D01*
Y-1680D01*
X-49D01*
Y-1520D01*
X-10Y-1497D01*
X29Y-1520D01*
Y-1780D01*
X-49D01*
Y-1780D01*
X-276D01*
Y-1730D01*
X-326D01*
Y-1494D01*
X-451D01*
X-487Y-1458D01*
X-487Y-1348D01*
X-494Y-1347D01*
Y-1075D01*
X-399Y-979D01*
X-386Y-965D01*
X-377Y-949D01*
X-374Y-942D01*
X-343Y-931D01*
X-318Y-930D01*
X-82Y-1166D01*
D02*
G37*
G36*
X-1711Y-1942D02*
X-1711Y-1944D01*
X-1716Y-1967D01*
X-1718Y-1990D01*
X-1716Y-2013D01*
X-1711Y-2036D01*
X-1704Y-2058D01*
X-1694Y-2079D01*
X-1681Y-2098D01*
X-1666Y-2116D01*
X-1648Y-2131D01*
X-1629Y-2144D01*
X-1608Y-2154D01*
X-1586Y-2161D01*
X-1563Y-2166D01*
X-1540Y-2168D01*
X-1517Y-2166D01*
X-1494Y-2161D01*
X-1472Y-2154D01*
X-1466Y-2151D01*
X-1427Y-2169D01*
X-1416Y-2181D01*
Y-2232D01*
X-1230D01*
Y-2006D01*
Y-1909D01*
X-1130D01*
Y-2006D01*
Y-2232D01*
X-944D01*
Y-1973D01*
X-926Y-1961D01*
X-876Y-1987D01*
Y-2297D01*
X-89D01*
Y-2238D01*
X40D01*
X59Y-2237D01*
X77Y-2233D01*
X94Y-2226D01*
X110Y-2216D01*
X124Y-2204D01*
X326Y-2002D01*
X338Y-1987D01*
X348Y-1972D01*
X350Y-1966D01*
X413D01*
Y-2519D01*
X-2420D01*
Y-1922D01*
X-1778D01*
Y-1913D01*
X-1741Y-1900D01*
X-1711Y-1942D01*
D02*
G37*
%LPC*%
G36*
X-837Y2008D02*
X-1200D01*
Y1781D01*
Y1555D01*
X-837D01*
Y1781D01*
Y2008D01*
D02*
G37*
G36*
X-1713Y1024D02*
X-1889D01*
Y837D01*
X-1713D01*
Y1024D01*
D02*
G37*
G36*
X-1989D02*
X-2165D01*
Y837D01*
X-1989D01*
Y1024D01*
D02*
G37*
G36*
X1722Y-887D02*
X1640D01*
Y-975D01*
X1722D01*
Y-887D01*
D02*
G37*
G36*
X1316Y-2296D02*
X1234D01*
Y-2384D01*
X1316D01*
Y-2296D01*
D02*
G37*
%LPD*%
D10*
X-1920Y340D02*
X-1425Y-155D01*
X1035Y-1921D02*
X1252Y-1921D01*
X1366Y-2226D02*
Y-2035D01*
X1252Y-1921D02*
X1366Y-2035D01*
X1084Y-2246D02*
X1133Y-2196D01*
X1133Y-2039D02*
X1133Y-2196D01*
X1133Y-2039D02*
X1252Y-1921D01*
X1590Y-1045D02*
X1783D01*
X1783Y-1045D01*
X760Y-656D02*
X825Y-721D01*
X1089D01*
Y-823D02*
Y-721D01*
Y-823D02*
X1171Y-905D01*
X700Y1520D02*
X817Y1403D01*
X1053Y610D02*
X1132D01*
X1369Y658D02*
X1526Y815D01*
X1132Y610D02*
X1151Y629D01*
X-1703Y1522D02*
X-1510Y1329D01*
Y890D02*
Y1329D01*
Y890D02*
X-1407Y787D01*
X-1703Y1522D02*
Y2170D01*
X-1575Y1575D02*
X-1250Y1250D01*
X-1575Y1575D02*
Y2170D01*
X-482Y-896D02*
Y-620D01*
X-720Y-1133D02*
X-482Y-896D01*
X-720Y-1168D02*
Y-1133D01*
X-1033Y-1233D02*
Y-1231D01*
X-1180Y-1380D02*
X-1033Y-1233D01*
X-1130Y-1130D02*
X-620Y-620D01*
X-1228Y-1130D02*
X-1130D01*
X-669Y-2120D02*
Y-1856D01*
X-720Y-1806D02*
X-669Y-1856D01*
X-927Y-2006D02*
X-921Y-2012D01*
X-1180Y-2006D02*
X-927D01*
X242Y-1918D02*
Y-1350D01*
X40Y-2120D02*
X242Y-1918D01*
X-295Y-2120D02*
X40D01*
X242Y-1350D02*
Y-1322D01*
X-344Y-736D02*
X242Y-1322D01*
X-1868Y-1411D02*
Y-1410D01*
Y-1411D02*
X-1755Y-1525D01*
X-1709D01*
Y-1306D02*
X-1459D01*
X-1868Y-1410D02*
X-1764Y-1306D01*
X-1709D01*
X-1459D02*
X-1453Y-1313D01*
Y-1130D01*
X-306Y-1740D02*
X-256Y-1790D01*
X10Y-1650D02*
Y-1350D01*
X518Y-208D02*
X539D01*
X-345Y-735D02*
X-344Y-736D01*
Y-620D01*
X-345Y-735D02*
Y-620D01*
X-1180Y-1474D02*
Y-1380D01*
X-1154Y-138D02*
X-672Y344D01*
X-1407Y-138D02*
X-1154D01*
X-1643Y-324D02*
X-1593D01*
X-1425Y-155D02*
X-1407Y-138D01*
X-1593Y-324D02*
X-1425Y-155D01*
X539Y-208D02*
X620Y-289D01*
Y-344D02*
Y-289D01*
Y-69D02*
X845D01*
X760Y-600D02*
X760Y-656D01*
X1132Y-511D02*
X1173D01*
X924Y-303D02*
X1132Y-511D01*
X207Y-207D02*
X517D01*
X518Y-208D01*
X811Y1128D02*
X817Y1122D01*
X600Y1128D02*
X811D01*
X600D02*
X620Y1108D01*
Y620D02*
Y1108D01*
X69Y620D02*
Y1108D01*
X89Y1128D01*
X-122D02*
X89D01*
X-128Y1122D02*
X-122Y1128D01*
X-482Y620D02*
Y723D01*
X-787Y1029D02*
X-482Y723D01*
X-787Y1029D02*
Y1250D01*
X-672Y344D02*
X-620D01*
X-344Y1722D02*
Y2165D01*
Y620D02*
Y796D01*
X-512Y963D02*
X-344Y796D01*
X-512Y963D02*
Y2165D01*
X-127Y1366D02*
X76D01*
X90Y1352D01*
X614Y1366D02*
X817D01*
X600Y1352D02*
X614Y1366D01*
X-1250Y1250D02*
X-925Y925D01*
X-1388Y344D02*
X-954D01*
X-1407Y325D02*
X-1388Y344D01*
X-1407Y787D02*
X-1367D01*
X-1062Y482D01*
X-620D01*
X-127Y1366D02*
Y1403D01*
X-10Y1520D01*
D12*
X1252Y-1350D02*
X1366Y-1236D01*
Y-1045D01*
X1074Y-1635D02*
X1425D01*
X1590Y-1801D01*
X1010Y-1571D02*
X1074Y-1635D01*
X482Y-678D02*
X1010Y-1206D01*
X1590Y-2226D02*
Y-1801D01*
X1252Y-1350D02*
Y-1308D01*
X620Y-676D02*
X1252Y-1308D01*
X1010Y-1571D02*
Y-1206D01*
X910Y-2520D02*
Y-1244D01*
X344Y-679D02*
X910Y-1244D01*
X812Y-2520D02*
Y-1285D01*
X207Y-680D02*
X812Y-1285D01*
X713Y-2520D02*
Y-1326D01*
X69Y-682D02*
X713Y-1326D01*
X615Y-2520D02*
Y-1367D01*
X-69Y-683D02*
X615Y-1367D01*
X516Y-2520D02*
Y-1407D01*
X-207Y-684D02*
X516Y-1407D01*
X837Y2008D02*
X1309Y1535D01*
Y837D02*
Y1535D01*
X709Y69D02*
X1073Y433D01*
X1432D01*
X1742Y743D01*
X620Y69D02*
X709D01*
X1742Y743D02*
Y1241D01*
X935Y2048D02*
X1742Y1241D01*
X837Y2008D02*
Y2185D01*
X935Y2048D02*
Y2185D01*
X-1152Y-992D02*
X-642Y-482D01*
X-1619Y-992D02*
X-1152D01*
X-1193Y-894D02*
X-644Y-344D01*
X-2420Y-894D02*
X-1193D01*
X-1234Y-795D02*
X-645Y-207D01*
X-2420Y-795D02*
X-1234D01*
X-1275Y-697D02*
X-647Y-69D01*
X-2420Y-697D02*
X-1275D01*
X-1315Y-598D02*
X-648Y69D01*
X-2420Y-598D02*
X-1315D01*
X-1356Y-500D02*
X-649Y207D01*
X-2420Y-500D02*
X-1356D01*
X344Y-679D02*
Y-620D01*
X482Y-678D02*
Y-620D01*
X620Y-676D02*
Y-620D01*
X-1709Y-1082D02*
X-1619Y-992D01*
X-2230Y-1098D02*
X-2230Y-1125D01*
X-207Y-684D02*
Y-620D01*
X-69Y-683D02*
Y-620D01*
X69D02*
X69Y-682D01*
X207Y-680D02*
Y-620D01*
X482Y620D02*
Y688D01*
X443Y727D02*
X482Y688D01*
X207Y620D02*
Y697D01*
X-642Y-482D02*
X-620D01*
X-644Y-344D02*
X-620D01*
X-645Y-207D02*
X-620D01*
X-647Y-69D02*
X-620D01*
X-648Y69D02*
X-620D01*
X-649Y207D02*
X-620D01*
X-2260Y-1430D02*
X-2234Y-1456D01*
X344Y620D02*
Y2185D01*
X-69Y620D02*
Y819D01*
X-300Y1051D02*
X-69Y819D01*
X-300Y1051D02*
Y1436D01*
X-207Y620D02*
Y818D01*
X-399Y1010D02*
X-207Y818D01*
X-399Y1010D02*
Y1477D01*
X620Y482D02*
X642D01*
X620Y344D02*
X644D01*
X207Y697D02*
X246Y736D01*
Y2185D01*
X443Y727D02*
Y2185D01*
X541Y1885D02*
Y2185D01*
X640Y1926D02*
Y2185D01*
X-300Y1436D02*
X148Y1884D01*
Y2185D01*
X49Y1925D02*
Y2185D01*
X-399Y1477D02*
X49Y1925D01*
X-2230Y-1125D02*
X-2132D01*
X-2234Y-1593D02*
Y-1456D01*
Y-1593D02*
X-2142Y-1686D01*
X-2132Y-1696D02*
X-2079Y-1749D01*
X-1709D01*
X-2132Y-1125D02*
X-2089Y-1082D01*
X-1709D01*
X645Y207D02*
X930Y492D01*
Y713D02*
X1186Y969D01*
X733Y795D02*
X989Y1051D01*
X832Y754D02*
X1088Y1010D01*
X620Y207D02*
X645D01*
X541Y1885D02*
X989Y1437D01*
Y1051D02*
Y1437D01*
X640Y1926D02*
X1088Y1478D01*
Y1010D02*
Y1478D01*
X738Y1967D02*
Y2185D01*
Y1967D02*
X1186Y1519D01*
Y969D02*
Y1519D01*
X642Y482D02*
X733Y573D01*
Y795D01*
X644Y344D02*
X832Y532D01*
Y754D01*
X930Y492D02*
Y713D01*
D13*
X1704Y-1350D02*
D03*
X1252D02*
D03*
Y-1921D02*
D03*
X1704D02*
D03*
D14*
X1590Y-2246D02*
D03*
X1366D02*
D03*
X1366Y-1025D02*
D03*
X1590D02*
D03*
X1089Y-721D02*
D03*
X1313D02*
D03*
X1275Y-69D02*
D03*
X1500D02*
D03*
X845Y-69D02*
D03*
X1070D02*
D03*
X18Y-1350D02*
D03*
X242D02*
D03*
X1383Y639D02*
D03*
X1158D02*
D03*
X-1453Y-1130D02*
D03*
X-1228D02*
D03*
D15*
X-2132Y-1696D02*
D03*
Y-1125D02*
D03*
D16*
X-620Y620D02*
D03*
X620Y-344D02*
D03*
X482D02*
D03*
X620Y-620D02*
D03*
X-482Y620D02*
D03*
X-344D02*
D03*
X-207D02*
D03*
X-69D02*
D03*
X69D02*
D03*
X207D02*
D03*
X344D02*
D03*
X482D02*
D03*
X620D02*
D03*
X-620Y482D02*
D03*
X-482D02*
D03*
X-344D02*
D03*
X-207D02*
D03*
X-69D02*
D03*
X69D02*
D03*
X207D02*
D03*
X344D02*
D03*
X482D02*
D03*
X620D02*
D03*
X-620Y344D02*
D03*
X-482D02*
D03*
X-344D02*
D03*
X-207D02*
D03*
X-69D02*
D03*
X69D02*
D03*
X207D02*
D03*
X482D02*
D03*
X620D02*
D03*
X-620Y207D02*
D03*
X-482D02*
D03*
X-344D02*
D03*
X-207D02*
D03*
X-69D02*
D03*
X69D02*
D03*
X207D02*
D03*
X344D02*
D03*
X482D02*
D03*
X620D02*
D03*
X-620Y69D02*
D03*
X-482D02*
D03*
X-344D02*
D03*
X-207D02*
D03*
X-69D02*
D03*
X69D02*
D03*
X207D02*
D03*
X344D02*
D03*
X482D02*
D03*
X620D02*
D03*
X-620Y-69D02*
D03*
X-482D02*
D03*
X-344D02*
D03*
X-207D02*
D03*
X-69D02*
D03*
X69D02*
D03*
X207D02*
D03*
X344D02*
D03*
X482D02*
D03*
X620D02*
D03*
X-620Y-207D02*
D03*
X-482D02*
D03*
X-344D02*
D03*
X-207D02*
D03*
X-69D02*
D03*
X69D02*
D03*
X207D02*
D03*
X344D02*
D03*
X-620Y-344D02*
D03*
X-482D02*
D03*
X-344D02*
D03*
X-207D02*
D03*
X-69D02*
D03*
X69D02*
D03*
X207D02*
D03*
X-620Y-482D02*
D03*
X-482D02*
D03*
X-344D02*
D03*
X-207D02*
D03*
X-69D02*
D03*
X69D02*
D03*
X207D02*
D03*
X344D02*
D03*
X-620Y-620D02*
D03*
X-482D02*
D03*
X-344D02*
D03*
X-207D02*
D03*
X-69D02*
D03*
X69D02*
D03*
X207D02*
D03*
X344D02*
D03*
X482D02*
D03*
D17*
X-1407Y325D02*
D03*
X-1939D02*
D03*
X-1407Y787D02*
D03*
X-1939D02*
D03*
X-276Y-1730D02*
D03*
X256D02*
D03*
X-1407Y-138D02*
D03*
X-1939D02*
D03*
D18*
X-295Y-2120D02*
D03*
X-669D02*
D03*
D19*
X-730Y-1174D02*
D03*
Y-1706D02*
D03*
X-1250Y1250D02*
D03*
Y1781D02*
D03*
X-787Y1250D02*
D03*
Y1781D02*
D03*
X-1180Y-1474D02*
D03*
Y-2006D02*
D03*
D20*
X-1709Y-1306D02*
D03*
Y-1082D02*
D03*
Y-1525D02*
D03*
Y-1749D02*
D03*
X600Y1352D02*
D03*
Y1128D02*
D03*
X90Y1352D02*
D03*
Y1128D02*
D03*
X1173Y-287D02*
D03*
Y-511D02*
D03*
D29*
X-1540Y-1834D02*
X-1180Y-1474D01*
X-1540Y-1990D02*
Y-1834D01*
D30*
X1072Y-69D02*
X1178D01*
X1275D01*
X1280D01*
D31*
X1173Y-74D02*
X1178Y-69D01*
X1173Y-287D02*
Y-74D01*
D32*
X1588Y-69D02*
X2234D01*
D33*
X2227Y-69D02*
D03*
D34*
X-69Y0D02*
D03*
D35*
X207Y-256D02*
D03*
D36*
X1144Y-2246D02*
D03*
X1813Y-966D02*
D03*
X1526Y-758D02*
D03*
X1171Y-905D02*
D03*
X1969Y837D02*
D03*
X1526Y815D02*
D03*
X1526Y1161D02*
D03*
X2244Y2077D02*
D03*
X1201Y2077D02*
D03*
X-420Y-2421D02*
D03*
X-1540Y-1990D02*
D03*
X-360Y-1130D02*
D03*
X-374Y-1374D02*
D03*
X-1490Y-1350D02*
D03*
X1821Y-389D02*
D03*
X2244Y249D02*
D03*
Y-389D02*
D03*
X1821Y249D02*
D03*
X1148Y190D02*
D03*
X924Y-303D02*
D03*
X1440Y-380D02*
D03*
X-1643Y-324D02*
D03*
X817Y1122D02*
D03*
X-128D02*
D03*
X-127Y1366D02*
D03*
X817D02*
D03*
X-2264Y-138D02*
D03*
Y778D02*
D03*
X-1870Y-2006D02*
D03*
X-1250Y2087D02*
D03*
X-807D02*
D03*
X2244Y1299D02*
D03*
X-1921Y2047D02*
D03*
X-1810Y1290D02*
D03*
X-2303Y1368D02*
D03*
Y2047D02*
D03*
X-1190Y-2350D02*
D03*
X-2303Y-2402D02*
D03*
X2264Y-1171D02*
D03*
Y-2421D02*
D03*
X320Y-2190D02*
D03*
D37*
X1035Y-1921D02*
D03*
X1053Y610D02*
D03*
X1309Y837D02*
D03*
X-1033Y-1231D02*
D03*
X146Y-1220D02*
D03*
X-2000Y-1410D02*
D03*
X-620Y620D02*
D03*
X760Y-600D02*
D03*
X482Y-346D02*
D03*
X344Y-482D02*
D03*
X-482D02*
D03*
X-344D02*
D03*
X-207D02*
D03*
X-69D02*
D03*
X69D02*
D03*
X207D02*
D03*
X482Y-69D02*
D03*
Y69D02*
D03*
Y207D02*
D03*
Y344D02*
D03*
Y482D02*
D03*
X344D02*
D03*
X207D02*
D03*
X69D02*
D03*
X-69D02*
D03*
X-207D02*
D03*
X-344D02*
D03*
X-482Y344D02*
D03*
Y207D02*
D03*
Y-69D02*
D03*
Y-207D02*
D03*
Y-344D02*
D03*
X-344Y344D02*
D03*
X-69D02*
D03*
X69D02*
D03*
X207D02*
D03*
X344Y69D02*
D03*
Y207D02*
D03*
X-344Y-344D02*
D03*
X-207D02*
D03*
X69D02*
D03*
X-482Y69D02*
D03*
X-207Y344D02*
D03*
X344Y-69D02*
D03*
X-2260Y-1430D02*
D03*
X-344Y1722D02*
D03*
X-482Y482D02*
D03*
X-69Y-344D02*
D03*
X-925Y925D02*
D03*
X-954Y344D02*
D03*
X-1680Y790D02*
D03*
D38*
X-1120Y870D02*
D03*
D39*
X67Y-72D02*
D03*
X-263Y-50D02*
D03*
M02*
