G04*
G04 #@! TF.GenerationSoftware,Altium Limited,Altium Designer,19.0.10 (269)*
G04*
G04 Layer_Physical_Order=4*
G04 Layer_Color=16711680*
%FSLAX24Y24*%
%MOIN*%
G70*
G01*
G75*
%ADD31C,0.0118*%
%ADD38C,0.0394*%
%ADD39C,0.0197*%
%ADD41C,0.0169*%
G36*
X2360Y-2517D02*
X-2419D01*
Y2182D01*
X1147D01*
X1172Y2132D01*
X1153Y2107D01*
X1125Y2040D01*
X1116Y1969D01*
X1125Y1897D01*
X1153Y1830D01*
X1197Y1772D01*
X1255Y1728D01*
X1322Y1700D01*
X1394Y1691D01*
X1466Y1700D01*
X1533Y1728D01*
X1590Y1772D01*
X1613Y1801D01*
X1675D01*
X1697Y1772D01*
X1755Y1728D01*
X1822Y1700D01*
X1894Y1691D01*
X1966Y1700D01*
X2033Y1728D01*
X2090Y1772D01*
X2134Y1830D01*
X2162Y1897D01*
X2172Y1969D01*
X2162Y2040D01*
X2134Y2107D01*
X2115Y2132D01*
X2140Y2182D01*
X2360D01*
Y-2517D01*
D02*
G37*
%LPC*%
G36*
X817Y1303D02*
X748Y1289D01*
X689Y1250D01*
X650Y1191D01*
X636Y1122D01*
X650Y1053D01*
X689Y994D01*
X748Y955D01*
X817Y941D01*
X886Y955D01*
X945Y994D01*
X984Y1053D01*
X998Y1122D01*
X984Y1191D01*
X945Y1250D01*
X886Y1289D01*
X817Y1303D01*
D02*
G37*
G36*
X-128D02*
X-197Y1289D01*
X-256Y1250D01*
X-295Y1191D01*
X-309Y1122D01*
X-295Y1053D01*
X-256Y994D01*
X-197Y955D01*
X-128Y941D01*
X-59Y955D01*
X-0Y994D01*
X39Y1053D01*
X53Y1122D01*
X39Y1191D01*
X-0Y1250D01*
X-59Y1289D01*
X-128Y1303D01*
D02*
G37*
G36*
X-1407Y54D02*
X-1476Y40D01*
X-1535Y1D01*
X-1574Y-58D01*
X-1583Y-105D01*
X-1839Y-361D01*
X-1870Y-407D01*
X-1880Y-460D01*
Y-1780D01*
X-1870Y-1834D01*
X-1839Y-1879D01*
X-1719Y-2000D01*
X-1707Y-2059D01*
X-1668Y-2118D01*
X-1609Y-2157D01*
X-1540Y-2171D01*
X-1471Y-2157D01*
X-1431Y-2130D01*
X86D01*
X140Y-2120D01*
X186Y-2089D01*
X1194Y-1082D01*
X1240Y-1072D01*
X1299Y-1033D01*
X1338Y-974D01*
X1352Y-905D01*
X1338Y-836D01*
X1299Y-778D01*
X1240Y-738D01*
X1171Y-725D01*
X1102Y-738D01*
X1043Y-778D01*
X1004Y-836D01*
X995Y-883D01*
X28Y-1850D01*
X-1431D01*
X-1471Y-1823D01*
X-1505Y-1816D01*
X-1600Y-1722D01*
Y-519D01*
X-1384Y-303D01*
X-1338Y-294D01*
X-1279Y-255D01*
X-1240Y-196D01*
X-1226Y-127D01*
X-1240Y-58D01*
X-1279Y1D01*
X-1338Y40D01*
X-1407Y54D01*
D02*
G37*
%LPD*%
D31*
X-1740Y-460D02*
X-1407Y-127D01*
X-1540Y-1990D02*
X86D01*
X1171Y-905D01*
X-1740Y-1780D02*
X-1538Y-1982D01*
X-1740Y-1780D02*
Y-460D01*
D38*
X1394Y1969D02*
D03*
X1894D02*
D03*
D39*
X1144Y-2246D02*
D03*
X1813Y-966D02*
D03*
X1526Y-758D02*
D03*
X1171Y-905D02*
D03*
X1969Y837D02*
D03*
X-1199Y929D02*
D03*
X-2303Y-287D02*
D03*
X-1939Y413D02*
D03*
X-1407Y-127D02*
D03*
X974Y2087D02*
D03*
X1333Y1614D02*
D03*
X1943D02*
D03*
X-420Y-2421D02*
D03*
X-1540Y-1990D02*
D03*
X-360Y-1130D02*
D03*
X-374Y-1374D02*
D03*
X-1490Y-1350D02*
D03*
X1821Y-389D02*
D03*
X2244Y249D02*
D03*
Y-389D02*
D03*
X1821Y249D02*
D03*
X1148Y190D02*
D03*
X924Y-303D02*
D03*
X1440Y-380D02*
D03*
X817Y1122D02*
D03*
X-128D02*
D03*
X-127Y1366D02*
D03*
X817D02*
D03*
X-1870Y-2006D02*
D03*
X-1250Y2087D02*
D03*
X-807D02*
D03*
X1526Y815D02*
D03*
X2244Y1299D02*
D03*
X-1921Y2077D02*
D03*
X-1810Y1290D02*
D03*
X-2303Y1368D02*
D03*
Y2077D02*
D03*
X-1190Y-2350D02*
D03*
X-2303Y-2402D02*
D03*
X2254Y2087D02*
D03*
X2264Y-1171D02*
D03*
Y-2421D02*
D03*
X320Y-2190D02*
D03*
D41*
X67Y-72D02*
D03*
X-263Y-50D02*
D03*
M02*
