M48
;Layer_Color=9474304
;FILE_FORMAT=2:4
INCH,TZ
;TYPE=PLATED
T1F00S00C0.0039
%
T01
X-2260Y-1430
X-2000Y-1410
X-669Y-931
X-482Y-482
X-344
X-207
X-69
X69
X207
X344
X482Y-346
X482Y-69
Y69
Y207
Y344
Y482
X344
X207
X69
X-69
Y344
X69
X207
X344Y207
Y69
Y-69
X69Y-344
X-69
X-207
X-344
X-482
Y-207
Y-69
Y69
Y207
X-344Y344
X-207
Y482
X-482
X-620Y620
X1053Y610
X1309Y837
X760Y-600
X146Y-1220
X1035Y-1921
M30
