M48
;Layer_Color=9474304
;FILE_FORMAT=2:4
INCH,TZ
;TYPE=PLATED
T1F00S00C0.0039
%
T01
X-2260Y-1430
X-2000Y-1410
X-1033Y-1231
X146Y-1220
X207Y-482
X344
X482Y-346
X482Y-69
Y69
Y207
Y344
Y482
X344
X207
X69
X-69
Y344
X69
X207
X344Y207
Y69
Y-69
X69Y-344
X-69
Y-482
X69
X-207
X-344
X-482
Y-344
Y-207
Y-69
Y69
Y207
Y344
X-344
Y482
X-207
Y344
X-482Y482
X-620Y620
X-954Y344
X-925Y925
X-1680Y790
X-344Y1722
Y-344
X-207
X760Y-600
X1053Y610
X1309Y837
X1035Y-1921
M30
