M48
;DRILL file {KiCad (5.0.0)} date 04/02/19 14:37:57
;FORMAT={-:-/ absolute / metric / decimal}
FMAT,2
METRIC,TZ
T1C0.100
T2C0.150
T3C1.000
T4C1.320
T5C1.500
T6C1.700
%
G90
G05
M71
T1
X63.754Y-53.34
X66.04Y-49.022
X70.612Y-49.53
X71.374Y-50.038
X72.136Y-49.022
X72.136Y-55.626
X75.184Y-57.404
X75.184Y-66.294
X77.216Y-44.196
X77.978Y-46.482
X79.204Y-45.002
X80.518Y-47.244
X80.684Y-46.226
X81.28Y-54.356
X83.566Y-59.182
X85.598Y-64.262
X86.614Y-67.056
X91.694Y-67.564
X94.742Y-66.548
T2
X73.704Y-47.276
X73.704Y-47.776
X73.704Y-48.276
X73.704Y-48.776
X74.454Y-46.526
X74.954Y-46.526
X74.954Y-52.026
X75.454Y-46.526
X75.454Y-52.026
X75.954Y-46.526
X75.954Y-52.026
X76.454Y-46.526
X76.454Y-52.026
X76.954Y-46.526
X76.954Y-52.026
X77.454Y-46.526
X77.454Y-52.026
X79.204Y-48.276
X79.204Y-48.776
X79.204Y-49.276
X79.204Y-49.776
X79.204Y-50.276
X79.204Y-50.776
T3
X89.662Y-29.972
X89.662Y-32.512
X93.389Y-30.019
X93.389Y-32.559
X84.582Y-74.676
X87.122Y-74.676
X48.514Y-23.114
X48.514Y-25.654
X51.054Y-23.114
X51.054Y-25.654
X53.594Y-23.114
X53.594Y-25.654
X56.134Y-23.114
X56.134Y-25.654
X58.674Y-23.114
X58.674Y-25.654
X61.214Y-23.114
X61.214Y-25.654
X63.754Y-23.114
X63.754Y-25.654
X66.294Y-23.114
X66.294Y-25.654
X68.834Y-23.114
X68.834Y-25.654
X71.374Y-23.114
X71.374Y-25.654
X73.914Y-23.114
X73.914Y-25.654
X76.454Y-23.114
X76.454Y-25.654
X78.994Y-23.114
X78.994Y-25.654
X81.534Y-23.114
X81.534Y-25.654
X84.074Y-23.114
X84.074Y-25.654
X86.614Y-23.114
X86.614Y-25.654
X89.154Y-23.114
X89.154Y-25.654
X91.694Y-23.114
X91.694Y-25.654
X94.234Y-23.114
X94.234Y-25.654
X96.774Y-23.114
X96.774Y-25.654
T4
X47.244Y-32.004
X47.244Y-37.004
T5
X45.212Y-71.882
X45.466Y-44.704
T6
X42.672Y-69.342
X42.672Y-74.422
X47.752Y-69.342
X47.752Y-74.422
T0
M30
