G04 #@! TF.GenerationSoftware,KiCad,Pcbnew,(5.0.0)*
G04 #@! TF.CreationDate,2019-04-02T14:56:13-03:00*
G04 #@! TF.ProjectId,basic-hat,62617369632D6861742E6B696361645F,rev?*
G04 #@! TF.SameCoordinates,Original*
G04 #@! TF.FileFunction,Copper,L2,Inr,Signal*
G04 #@! TF.FilePolarity,Positive*
%FSLAX46Y46*%
G04 Gerber Fmt 4.6, Leading zero omitted, Abs format (unit mm)*
G04 Created by KiCad (PCBNEW (5.0.0)) date 04/02/19 14:56:13*
%MOMM*%
%LPD*%
G01*
G04 APERTURE LIST*
G04 #@! TA.AperFunction,ViaPad*
%ADD10C,2.050000*%
G04 #@! TD*
G04 #@! TA.AperFunction,ViaPad*
%ADD11C,2.250000*%
G04 #@! TD*
G04 #@! TA.AperFunction,ViaPad*
%ADD12O,1.700000X1.700000*%
G04 #@! TD*
G04 #@! TA.AperFunction,ViaPad*
%ADD13R,1.700000X1.700000*%
G04 #@! TD*
G04 #@! TA.AperFunction,ViaPad*
%ADD14R,3.960000X1.980000*%
G04 #@! TD*
G04 #@! TA.AperFunction,ViaPad*
%ADD15O,3.960000X1.980000*%
G04 #@! TD*
G04 #@! TA.AperFunction,ViaPad*
%ADD16C,3.000000*%
G04 #@! TD*
G04 #@! TA.AperFunction,ViaPad*
%ADD17C,0.300000*%
G04 #@! TD*
G04 #@! TA.AperFunction,ViaPad*
%ADD18C,0.350000*%
G04 #@! TD*
G04 #@! TA.AperFunction,Conductor*
%ADD19C,0.145000*%
G04 #@! TD*
G04 APERTURE END LIST*
D10*
G04 #@! TO.N,Net-(ANT1-Pad1)*
G04 #@! TO.C,J1*
X45212000Y-71882000D03*
D11*
G04 #@! TO.N,Ground (VSS_PA)*
X47752000Y-74422000D03*
X47752000Y-69342000D03*
X42672000Y-69342000D03*
X42672000Y-74422000D03*
G04 #@! TD*
D12*
G04 #@! TO.N,P0.09*
G04 #@! TO.C,J2*
X84582000Y-74676000D03*
D13*
G04 #@! TO.N,P0.10*
X87122000Y-74676000D03*
G04 #@! TD*
G04 #@! TO.N,Net-(J3-Pad1)*
G04 #@! TO.C,J3*
X93389001Y-30019001D03*
D12*
G04 #@! TO.N,P0.01*
X93389001Y-32559001D03*
G04 #@! TD*
D13*
G04 #@! TO.N,Net-(J4-Pad1)*
G04 #@! TO.C,J4*
X89662000Y-29972000D03*
D12*
G04 #@! TO.N,p0.00*
X89662000Y-32512000D03*
G04 #@! TD*
D13*
G04 #@! TO.N,Net-(J5-Pad1)*
G04 #@! TO.C,J5*
X48514000Y-25654000D03*
D12*
G04 #@! TO.N,VDDH*
X48514000Y-23114000D03*
G04 #@! TO.N,Net-(J5-Pad3)*
X51054000Y-25654000D03*
G04 #@! TO.N,Net-(J5-Pad4)*
X51054000Y-23114000D03*
G04 #@! TO.N,Net-(J5-Pad5)*
X53594000Y-25654000D03*
G04 #@! TO.N,Ground (VSS_PA)*
X53594000Y-23114000D03*
G04 #@! TO.N,Net-(J5-Pad7)*
X56134000Y-25654000D03*
G04 #@! TO.N,Net-(J4-Pad1)*
X56134000Y-23114000D03*
G04 #@! TO.N,Net-(J5-Pad9)*
X58674000Y-25654000D03*
G04 #@! TO.N,Net-(J3-Pad1)*
X58674000Y-23114000D03*
G04 #@! TO.N,Net-(J5-Pad11)*
X61214000Y-25654000D03*
G04 #@! TO.N,Net-(J5-Pad12)*
X61214000Y-23114000D03*
G04 #@! TO.N,Net-(J5-Pad13)*
X63754000Y-25654000D03*
G04 #@! TO.N,Net-(J5-Pad14)*
X63754000Y-23114000D03*
G04 #@! TO.N,Net-(J5-Pad15)*
X66294000Y-25654000D03*
G04 #@! TO.N,Net-(J5-Pad16)*
X66294000Y-23114000D03*
G04 #@! TO.N,Net-(J5-Pad17)*
X68834000Y-25654000D03*
G04 #@! TO.N,Net-(J5-Pad18)*
X68834000Y-23114000D03*
G04 #@! TO.N,Net-(J5-Pad19)*
X71374000Y-25654000D03*
G04 #@! TO.N,Net-(J5-Pad20)*
X71374000Y-23114000D03*
G04 #@! TO.N,Net-(J5-Pad21)*
X73914000Y-25654000D03*
G04 #@! TO.N,Net-(J5-Pad22)*
X73914000Y-23114000D03*
G04 #@! TO.N,Net-(J5-Pad23)*
X76454000Y-25654000D03*
G04 #@! TO.N,Net-(J5-Pad24)*
X76454000Y-23114000D03*
G04 #@! TO.N,Net-(J5-Pad25)*
X78994000Y-25654000D03*
G04 #@! TO.N,Net-(J5-Pad26)*
X78994000Y-23114000D03*
G04 #@! TO.N,Net-(J5-Pad27)*
X81534000Y-25654000D03*
G04 #@! TO.N,Net-(J5-Pad28)*
X81534000Y-23114000D03*
G04 #@! TO.N,Net-(J5-Pad29)*
X84074000Y-25654000D03*
G04 #@! TO.N,Net-(J5-Pad30)*
X84074000Y-23114000D03*
G04 #@! TO.N,Net-(J5-Pad31)*
X86614000Y-25654000D03*
G04 #@! TO.N,Net-(J5-Pad32)*
X86614000Y-23114000D03*
G04 #@! TO.N,Net-(J5-Pad33)*
X89154000Y-25654000D03*
G04 #@! TO.N,Net-(J5-Pad34)*
X89154000Y-23114000D03*
G04 #@! TO.N,Net-(J5-Pad35)*
X91694000Y-25654000D03*
G04 #@! TO.N,Net-(J5-Pad36)*
X91694000Y-23114000D03*
G04 #@! TO.N,Net-(J5-Pad37)*
X94234000Y-25654000D03*
G04 #@! TO.N,Net-(J5-Pad38)*
X94234000Y-23114000D03*
G04 #@! TO.N,Net-(J5-Pad39)*
X96774000Y-25654000D03*
G04 #@! TO.N,Net-(J5-Pad40)*
X96774000Y-23114000D03*
G04 #@! TD*
D14*
G04 #@! TO.N,+12V*
G04 #@! TO.C,J7*
X47244000Y-32004000D03*
D15*
G04 #@! TO.N,Ground (VSS_PA)*
X47244000Y-37004000D03*
G04 #@! TD*
D16*
G04 #@! TO.N,Net-(IC1-Pad7)*
G04 #@! TO.C,J8*
X45466000Y-44704000D03*
G04 #@! TD*
D17*
G04 #@! TO.N,1.1vsup_decup(dec1)*
X82042000Y-55118000D03*
X75946006Y-62992000D03*
G04 #@! TO.N,VDDH*
X53086000Y-28448000D03*
X64516000Y-51308000D03*
X59690000Y-61976000D03*
D18*
X79204000Y-45002000D03*
X66040000Y-49022000D03*
G04 #@! TO.N,decusb3.3v*
X78454000Y-46526000D03*
X63754000Y-53340000D03*
G04 #@! TO.N,1.3vsup_decup(flash)(dec5)*
X72136000Y-49022000D03*
X94742000Y-66548000D03*
D17*
G04 #@! TO.N,1.3vsup_decup(dec4)*
X67056000Y-66548000D03*
X67056000Y-68834000D03*
X79866154Y-53483846D03*
D18*
G04 #@! TO.N,XC2*
X85598000Y-64262000D03*
X75184000Y-57404000D03*
D17*
G04 #@! TO.N,Net-(C15-Pad2)*
X81280000Y-64770000D03*
X83566000Y-64516000D03*
D18*
G04 #@! TO.N,XC1*
X75184000Y-66294000D03*
X86614000Y-67056000D03*
D17*
G04 #@! TO.N,+12V*
X47752000Y-49784000D03*
X57404000Y-45720000D03*
G04 #@! TO.N,Net-(IC1-Pad7)*
X58928000Y-41656000D03*
X51308000Y-45466000D03*
D18*
G04 #@! TO.N,P0.10*
X71374000Y-50038000D03*
G04 #@! TO.N,P0.09*
X70612000Y-49530000D03*
G04 #@! TO.N,P0.01*
X79204000Y-50776000D03*
D17*
G04 #@! TO.N,SWDCLK*
X81280000Y-35306000D03*
X85852000Y-30734000D03*
D18*
G04 #@! TO.N,P0.18*
X76454000Y-46526000D03*
D17*
X76626500Y-43942000D03*
D18*
G04 #@! TO.N,DCCH*
X80684497Y-46225997D03*
X83566000Y-59182000D03*
D17*
G04 #@! TO.N,DCC*
X76454000Y-72644000D03*
X80518000Y-53848000D03*
D18*
G04 #@! TO.N,P1.01*
X73704000Y-47276000D03*
G04 #@! TO.N,P1.03*
X73704000Y-47776000D03*
G04 #@! TO.N,P1.05*
X73704000Y-48276000D03*
G04 #@! TO.N,P1.07*
X73704000Y-48776000D03*
G04 #@! TO.N,P1.08*
X79204000Y-48776000D03*
G04 #@! TO.N,P1.11*
X74954000Y-52026000D03*
G04 #@! TO.N,P1.12*
X75454000Y-52026000D03*
G04 #@! TO.N,P1.14*
X75954000Y-52026000D03*
G04 #@! TO.N,P0.03*
X76454000Y-52026000D03*
G04 #@! TO.N,P0.05*
X79204000Y-49776000D03*
G04 #@! TO.N,P0.07*
X79204000Y-49276000D03*
G04 #@! TO.N,P0.11*
X79204000Y-48276000D03*
G04 #@! TO.N,P0.14*
X77454000Y-46526000D03*
G04 #@! TO.N,P0.16*
X76954000Y-46526000D03*
G04 #@! TO.N,P0.19*
X75954000Y-46526000D03*
G04 #@! TO.N,P0.21*
X75454000Y-46526000D03*
G04 #@! TO.N,P0.23*
X74954000Y-46526000D03*
G04 #@! TO.N,P0.25*
X74454000Y-46526000D03*
G04 #@! TO.N,P0.28*
X76954000Y-52026000D03*
G04 #@! TO.N,P0.27*
X79204000Y-50276000D03*
G04 #@! TO.N,P0.30*
X77454000Y-52026000D03*
G04 #@! TO.N,psu_decup(dec3)*
X72136000Y-55626000D03*
X91694000Y-67564000D03*
D17*
G04 #@! TO.N,VDD(A22)*
X71882000Y-37338000D03*
X77216000Y-29464000D03*
X75946000Y-41148000D03*
X80518000Y-68834000D03*
X83566000Y-68834000D03*
D18*
X77216000Y-44196000D03*
X80518000Y-47244000D03*
D17*
X76962000Y-58420000D03*
D18*
X81280000Y-54356000D03*
D17*
G04 #@! TO.N,Net-(C22-Pad1)*
X48768000Y-50800000D03*
X63246000Y-45720000D03*
G04 #@! TD*
D19*
G04 #@! TO.N,1.1vsup_decup(dec1)*
X82042000Y-55118000D02*
X75946006Y-61213994D01*
X75946006Y-61213994D02*
X75946006Y-62779868D01*
X75946006Y-62779868D02*
X75946006Y-62992000D01*
G04 #@! TO.N,VDDH*
X53086000Y-28448000D02*
X53086000Y-37846000D01*
X53086000Y-37846000D02*
X56134000Y-40894000D01*
X56134000Y-40894000D02*
X65786000Y-40894000D01*
X65786000Y-40894000D02*
X66040000Y-41148000D01*
X66040000Y-49784000D02*
X64516000Y-51308000D01*
X64516000Y-51308000D02*
X64516000Y-56642000D01*
X64516000Y-56642000D02*
X59690000Y-61468000D01*
X59690000Y-61468000D02*
X59690000Y-61976000D01*
X66040000Y-41148000D02*
X66040000Y-49022000D01*
X66040000Y-49022000D02*
X66040000Y-49784000D01*
G04 #@! TO.N,1.3vsup_decup(dec4)*
X67056000Y-66548000D02*
X67056000Y-68834000D01*
X79358154Y-54245846D02*
X67056000Y-66548000D01*
X79866154Y-53483846D02*
X79502000Y-53848000D01*
X79502000Y-54102000D02*
X79358154Y-54245846D01*
X79502000Y-53848000D02*
X79502000Y-54102000D01*
G04 #@! TO.N,Net-(C15-Pad2)*
X81280000Y-64770000D02*
X81534000Y-64516000D01*
X81534000Y-64516000D02*
X83566000Y-64516000D01*
G04 #@! TO.N,+12V*
X47752000Y-49784000D02*
X53340000Y-49784000D01*
X53340000Y-49784000D02*
X57404000Y-45720000D01*
G04 #@! TO.N,Net-(IC1-Pad7)*
X58928000Y-41656000D02*
X55118000Y-41656000D01*
X55118000Y-41656000D02*
X51308000Y-45466000D01*
G04 #@! TO.N,P0.01*
X79204000Y-50776000D02*
X90702000Y-50776000D01*
X93389001Y-48088999D02*
X93389001Y-32559001D01*
X90702000Y-50776000D02*
X93389001Y-48088999D01*
G04 #@! TO.N,SWDCLK*
X81280000Y-35306000D02*
X85598000Y-35306000D01*
X85598000Y-35306000D02*
X85852000Y-35052000D01*
X85852000Y-35052000D02*
X85852000Y-30734000D01*
G04 #@! TO.N,P0.18*
X76454000Y-46526000D02*
X76454000Y-44114500D01*
X76454000Y-44114500D02*
X76626500Y-43942000D01*
G04 #@! TO.N,DCC*
X75269498Y-59096502D02*
X80368001Y-53997999D01*
X80368001Y-53997999D02*
X80518000Y-53848000D01*
X75269498Y-63194802D02*
X75269498Y-59096502D01*
X76454000Y-64379304D02*
X75269498Y-63194802D01*
X76454000Y-72644000D02*
X76454000Y-64379304D01*
G04 #@! TO.N,VDD(A22)*
X71882000Y-37338000D02*
X71882000Y-34798000D01*
X71882000Y-34798000D02*
X77216000Y-29464000D01*
X72136000Y-37338000D02*
X71882000Y-37338000D01*
X75946000Y-41148000D02*
X72136000Y-37338000D01*
X80518000Y-68834000D02*
X83566000Y-68834000D01*
X81026000Y-54356000D02*
X81067868Y-54356000D01*
X76962000Y-58420000D02*
X81026000Y-54356000D01*
X81067868Y-54356000D02*
X81280000Y-54356000D01*
G04 #@! TO.N,Net-(C22-Pad1)*
X49438990Y-50129010D02*
X54772990Y-50129010D01*
X48768000Y-50800000D02*
X49438990Y-50129010D01*
X54772990Y-50129010D02*
X59182000Y-45720000D01*
X59182000Y-45720000D02*
X63246000Y-45720000D01*
G04 #@! TD*
M02*
