G04 #@! TF.GenerationSoftware,KiCad,Pcbnew,(5.0.0)*
G04 #@! TF.CreationDate,2019-04-02T14:38:18-03:00*
G04 #@! TF.ProjectId,basic-hat,62617369632D6861742E6B696361645F,rev?*
G04 #@! TF.SameCoordinates,Original*
G04 #@! TF.FileFunction,Legend,Top*
G04 #@! TF.FilePolarity,Positive*
%FSLAX46Y46*%
G04 Gerber Fmt 4.6, Leading zero omitted, Abs format (unit mm)*
G04 Created by KiCad (PCBNEW (5.0.0)) date 04/02/19 14:38:18*
%MOMM*%
%LPD*%
G01*
G04 APERTURE LIST*
%ADD10C,0.200000*%
%ADD11C,0.254000*%
%ADD12C,0.120000*%
%ADD13C,0.152400*%
%ADD14C,0.008000*%
%ADD15C,0.150000*%
G04 APERTURE END LIST*
D10*
G04 #@! TO.C,ANT1*
X54640000Y-75723000D02*
X52040000Y-75723000D01*
X54640000Y-73123000D02*
X54101000Y-73123000D01*
X52040000Y-73123000D02*
X52579000Y-73123000D01*
D11*
X53384000Y-72070000D02*
G75*
G03X53384000Y-72070000I-31000J0D01*
G01*
D12*
G04 #@! TO.C,C1*
X78688000Y-71136252D02*
X78688000Y-70613748D01*
X77268000Y-71136252D02*
X77268000Y-70613748D01*
G04 #@! TO.C,C2*
X69089748Y-67108000D02*
X69612252Y-67108000D01*
X69089748Y-68528000D02*
X69612252Y-68528000D01*
G04 #@! TO.C,C3*
X79554000Y-71127252D02*
X79554000Y-70604748D01*
X80974000Y-71127252D02*
X80974000Y-70604748D01*
G04 #@! TO.C,C4*
X70664000Y-71127252D02*
X70664000Y-70604748D01*
X72084000Y-71127252D02*
X72084000Y-70604748D01*
G04 #@! TO.C,C5*
X75386000Y-71127252D02*
X75386000Y-70604748D01*
X73966000Y-71127252D02*
X73966000Y-70604748D01*
G04 #@! TO.C,C6*
X84126000Y-70619252D02*
X84126000Y-70096748D01*
X85546000Y-70619252D02*
X85546000Y-70096748D01*
G04 #@! TO.C,C7*
X60504000Y-61977748D02*
X60504000Y-62500252D01*
X61924000Y-61977748D02*
X61924000Y-62500252D01*
G04 #@! TO.C,C8*
X61215748Y-53542000D02*
X61738252Y-53542000D01*
X61215748Y-52122000D02*
X61738252Y-52122000D01*
G04 #@! TO.C,C9*
X61206748Y-57352000D02*
X61729252Y-57352000D01*
X61206748Y-55932000D02*
X61729252Y-55932000D01*
G04 #@! TO.C,C10*
X94286000Y-70628252D02*
X94286000Y-70105748D01*
X95706000Y-70628252D02*
X95706000Y-70105748D01*
G04 #@! TO.C,C11*
X64517748Y-68528000D02*
X65040252Y-68528000D01*
X64517748Y-67108000D02*
X65040252Y-67108000D01*
G04 #@! TO.C,C12*
X56336000Y-69842748D02*
X56336000Y-70365252D01*
X54916000Y-69842748D02*
X54916000Y-70365252D01*
G04 #@! TO.C,C13*
X67057748Y-72305001D02*
X67580252Y-72305001D01*
X67057748Y-70885001D02*
X67580252Y-70885001D01*
G04 #@! TO.C,C14*
X90984000Y-70628252D02*
X90984000Y-70105748D01*
X92404000Y-70628252D02*
X92404000Y-70105748D01*
G04 #@! TO.C,C15*
X85360252Y-65076000D02*
X84837748Y-65076000D01*
X85360252Y-66496000D02*
X84837748Y-66496000D01*
G04 #@! TO.C,C16*
X87578000Y-70105748D02*
X87578000Y-70628252D01*
X86158000Y-70105748D02*
X86158000Y-70628252D01*
G04 #@! TO.C,C17*
X67057748Y-72950000D02*
X67580252Y-72950000D01*
X67057748Y-74370000D02*
X67580252Y-74370000D01*
G04 #@! TO.C,C18*
X41476500Y-51209500D02*
X41476500Y-51584500D01*
X41289000Y-51397000D02*
X41664000Y-51397000D01*
X42093437Y-53892000D02*
X42793437Y-54592000D01*
X42093437Y-51772000D02*
X42793437Y-51072000D01*
X42793437Y-54592000D02*
X45424000Y-54592000D01*
X42793437Y-51072000D02*
X45424000Y-51072000D01*
X45424000Y-51072000D02*
X45424000Y-51772000D01*
X45424000Y-54592000D02*
X45424000Y-53892000D01*
G04 #@! TO.C,C19*
X45194000Y-59418000D02*
X45194000Y-58718000D01*
X45194000Y-55898000D02*
X45194000Y-56598000D01*
X42563437Y-55898000D02*
X45194000Y-55898000D01*
X42563437Y-59418000D02*
X45194000Y-59418000D01*
X41863437Y-56598000D02*
X42563437Y-55898000D01*
X41863437Y-58718000D02*
X42563437Y-59418000D01*
X41059000Y-56223000D02*
X41434000Y-56223000D01*
X41246500Y-56035500D02*
X41246500Y-56410500D01*
G04 #@! TO.C,C20*
X43435748Y-61266000D02*
X43958252Y-61266000D01*
X43435748Y-62686000D02*
X43958252Y-62686000D01*
G04 #@! TO.C,C21*
X59892000Y-49274252D02*
X59892000Y-48751748D01*
X58472000Y-49274252D02*
X58472000Y-48751748D01*
G04 #@! TO.C,C22*
X52028000Y-54592000D02*
X52028000Y-53892000D01*
X52028000Y-51072000D02*
X52028000Y-51772000D01*
X49397437Y-51072000D02*
X52028000Y-51072000D01*
X49397437Y-54592000D02*
X52028000Y-54592000D01*
X48697437Y-51772000D02*
X49397437Y-51072000D01*
X48697437Y-53892000D02*
X49397437Y-54592000D01*
X47893000Y-51397000D02*
X48268000Y-51397000D01*
X48080500Y-51209500D02*
X48080500Y-51584500D01*
G04 #@! TO.C,D1*
X57651000Y-51872000D02*
X54791000Y-51872000D01*
X54791000Y-51872000D02*
X54791000Y-53792000D01*
X54791000Y-53792000D02*
X57651000Y-53792000D01*
D13*
G04 #@! TO.C,IC1*
X56997600Y-39471600D02*
X56997600Y-41884600D01*
X58267600Y-39471600D02*
X58267600Y-41884600D01*
X59537600Y-39471600D02*
X59537600Y-41884600D01*
X60807600Y-39471600D02*
X60807600Y-41884600D01*
X62077600Y-39471600D02*
X62077600Y-41884600D01*
X63347600Y-39471600D02*
X63347600Y-41884600D01*
X64617600Y-39471600D02*
X64617600Y-41884600D01*
X57810400Y-39471600D02*
X57810400Y-41884600D01*
X59080400Y-39471600D02*
X59080400Y-41884600D01*
X60350400Y-39471600D02*
X60350400Y-41884600D01*
X61620400Y-39471600D02*
X61620400Y-41884600D01*
X62890400Y-39471600D02*
X62890400Y-41884600D01*
X64160400Y-39471600D02*
X64160400Y-41884600D01*
X65430400Y-39471600D02*
X65430400Y-41884600D01*
D10*
G04 #@! TO.C,IC2*
X57092000Y-65483000D02*
X56192000Y-65483000D01*
X56192000Y-65483000D02*
X56192000Y-62533000D01*
X56192000Y-62533000D02*
X57092000Y-62533000D01*
X57092000Y-62533000D02*
X57092000Y-65483000D01*
X58442000Y-65608000D02*
X57442000Y-65608000D01*
D12*
G04 #@! TO.C,J1*
X41532000Y-70082000D02*
X41532000Y-73682000D01*
X48892000Y-70082000D02*
X48892000Y-73682000D01*
X43412000Y-75562000D02*
X47012000Y-75562000D01*
X43412000Y-68202000D02*
X47012000Y-68202000D01*
G04 #@! TO.C,J2*
X88452000Y-73346000D02*
X88452000Y-74676000D01*
X87122000Y-73346000D02*
X88452000Y-73346000D01*
X85852000Y-73346000D02*
X85852000Y-76006000D01*
X85852000Y-76006000D02*
X83252000Y-76006000D01*
X85852000Y-73346000D02*
X83252000Y-73346000D01*
X83252000Y-73346000D02*
X83252000Y-76006000D01*
G04 #@! TO.C,J3*
X92059001Y-33889001D02*
X94719001Y-33889001D01*
X92059001Y-31289001D02*
X92059001Y-33889001D01*
X94719001Y-31289001D02*
X94719001Y-33889001D01*
X92059001Y-31289001D02*
X94719001Y-31289001D01*
X92059001Y-30019001D02*
X92059001Y-28689001D01*
X92059001Y-28689001D02*
X93389001Y-28689001D01*
G04 #@! TO.C,J4*
X88332000Y-33842000D02*
X90992000Y-33842000D01*
X88332000Y-31242000D02*
X88332000Y-33842000D01*
X90992000Y-31242000D02*
X90992000Y-33842000D01*
X88332000Y-31242000D02*
X90992000Y-31242000D01*
X88332000Y-29972000D02*
X88332000Y-28642000D01*
X88332000Y-28642000D02*
X89662000Y-28642000D01*
G04 #@! TO.C,J5*
X98104000Y-26984000D02*
X98104000Y-21784000D01*
X49784000Y-26984000D02*
X98104000Y-26984000D01*
X47184000Y-21784000D02*
X98104000Y-21784000D01*
X49784000Y-26984000D02*
X49784000Y-24384000D01*
X49784000Y-24384000D02*
X47184000Y-24384000D01*
X47184000Y-24384000D02*
X47184000Y-21784000D01*
X48514000Y-26984000D02*
X47184000Y-26984000D01*
X47184000Y-26984000D02*
X47184000Y-25654000D01*
G04 #@! TO.C,J6*
X80277000Y-28515000D02*
X83807000Y-28515000D01*
X80277000Y-34985000D02*
X83807000Y-34985000D01*
X78952000Y-28580000D02*
X80277000Y-28580000D01*
X80277000Y-28515000D02*
X80277000Y-28580000D01*
X83807000Y-28515000D02*
X83807000Y-28580000D01*
X80277000Y-34920000D02*
X80277000Y-34985000D01*
X83807000Y-34920000D02*
X83807000Y-34985000D01*
G04 #@! TO.C,J7*
X53544000Y-29354000D02*
X40944000Y-29354000D01*
X40944000Y-29354000D02*
X40944000Y-39704000D01*
X40944000Y-39704000D02*
X41894000Y-39704000D01*
X41894000Y-39704000D02*
X41644000Y-40204000D01*
X41644000Y-40204000D02*
X43544000Y-40204000D01*
X43544000Y-40204000D02*
X43594000Y-40204000D01*
X43594000Y-40204000D02*
X43344000Y-39704000D01*
X43344000Y-39704000D02*
X48744000Y-39704000D01*
X48744000Y-39704000D02*
X48444000Y-40204000D01*
X48444000Y-40204000D02*
X53544000Y-40204000D01*
X53544000Y-40204000D02*
X53544000Y-29354000D01*
G04 #@! TO.C,J8*
X47526000Y-44704000D02*
G75*
G03X47526000Y-44704000I-2060000J0D01*
G01*
X47029000Y-43393000D02*
X46842000Y-43579000D01*
X44298000Y-46123000D02*
X44154000Y-46267000D01*
X46778000Y-43141000D02*
X46634000Y-43285000D01*
X44090000Y-45828000D02*
X43903000Y-46015000D01*
X40906000Y-40994000D02*
X50026000Y-40994000D01*
X40906000Y-48414000D02*
X50026000Y-48414000D01*
X40906000Y-40994000D02*
X40906000Y-48414000D01*
X50026000Y-40994000D02*
X50026000Y-48414000D01*
G04 #@! TO.C,L1*
X78688000Y-66549748D02*
X78688000Y-67072252D01*
X77268000Y-66549748D02*
X77268000Y-67072252D01*
G04 #@! TO.C,L2*
X65040252Y-64972000D02*
X64517748Y-64972000D01*
X65040252Y-63552000D02*
X64517748Y-63552000D01*
G04 #@! TO.C,L3*
X77477252Y-73204000D02*
X76954748Y-73204000D01*
X77477252Y-74624000D02*
X76954748Y-74624000D01*
G04 #@! TO.C,L4*
X60214252Y-68124000D02*
X59691748Y-68124000D01*
X60214252Y-69544000D02*
X59691748Y-69544000D01*
G04 #@! TO.C,L5*
X72397252Y-74624000D02*
X71874748Y-74624000D01*
X72397252Y-73204000D02*
X71874748Y-73204000D01*
G04 #@! TO.C,L6*
X50562252Y-55932000D02*
X50039748Y-55932000D01*
X50562252Y-57352000D02*
X50039748Y-57352000D01*
D10*
G04 #@! TO.C,Q1*
X50442000Y-62410000D02*
X50142000Y-62410000D01*
X50142000Y-62410000D02*
X50142000Y-59510000D01*
X50142000Y-59510000D02*
X50442000Y-59510000D01*
X50442000Y-59510000D02*
X50442000Y-62410000D01*
X51892000Y-62495000D02*
X50792000Y-62495000D01*
D12*
G04 #@! TO.C,R1*
X56389748Y-57352000D02*
X56912252Y-57352000D01*
X56389748Y-55932000D02*
X56912252Y-55932000D01*
G04 #@! TO.C,R2*
X56371748Y-59742000D02*
X56894252Y-59742000D01*
X56371748Y-61162000D02*
X56894252Y-61162000D01*
D14*
G04 #@! TO.C,U1*
X79946500Y-52768500D02*
X72961500Y-52768500D01*
X72961500Y-52768500D02*
X72961500Y-45783500D01*
X72961500Y-45783500D02*
X79946500Y-45783500D01*
X79946500Y-45783500D02*
X79946500Y-52768500D01*
D15*
X80533408Y-53086000D02*
G75*
G03X80533408Y-53086000I-269408J0D01*
G01*
D12*
G04 #@! TO.C,Y1*
X81572000Y-68002000D02*
X81572000Y-65152000D01*
X81572000Y-65152000D02*
X79972000Y-65152000D01*
X79972000Y-65152000D02*
X79972000Y-68002000D01*
G04 #@! TO.C,ANT1*
D11*
X51615809Y-74685666D02*
X52220571Y-74685666D01*
X51494857Y-75048523D02*
X51918190Y-73778523D01*
X52341523Y-75048523D01*
X52764857Y-75048523D02*
X52764857Y-73778523D01*
X53490571Y-75048523D01*
X53490571Y-73778523D01*
X53913904Y-73778523D02*
X54639619Y-73778523D01*
X54276761Y-75048523D02*
X54276761Y-73778523D01*
X55728190Y-75048523D02*
X55002476Y-75048523D01*
X55365333Y-75048523D02*
X55365333Y-73778523D01*
X55244380Y-73959952D01*
X55123428Y-74080904D01*
X55002476Y-74141380D01*
G04 #@! TO.C,C1*
D15*
X76685142Y-71041666D02*
X76732761Y-71089285D01*
X76780380Y-71232142D01*
X76780380Y-71327380D01*
X76732761Y-71470238D01*
X76637523Y-71565476D01*
X76542285Y-71613095D01*
X76351809Y-71660714D01*
X76208952Y-71660714D01*
X76018476Y-71613095D01*
X75923238Y-71565476D01*
X75828000Y-71470238D01*
X75780380Y-71327380D01*
X75780380Y-71232142D01*
X75828000Y-71089285D01*
X75875619Y-71041666D01*
X76780380Y-70089285D02*
X76780380Y-70660714D01*
X76780380Y-70375000D02*
X75780380Y-70375000D01*
X75923238Y-70470238D01*
X76018476Y-70565476D01*
X76066095Y-70660714D01*
G04 #@! TO.C,C2*
X69184333Y-66525142D02*
X69136714Y-66572761D01*
X68993857Y-66620380D01*
X68898619Y-66620380D01*
X68755761Y-66572761D01*
X68660523Y-66477523D01*
X68612904Y-66382285D01*
X68565285Y-66191809D01*
X68565285Y-66048952D01*
X68612904Y-65858476D01*
X68660523Y-65763238D01*
X68755761Y-65668000D01*
X68898619Y-65620380D01*
X68993857Y-65620380D01*
X69136714Y-65668000D01*
X69184333Y-65715619D01*
X69565285Y-65715619D02*
X69612904Y-65668000D01*
X69708142Y-65620380D01*
X69946238Y-65620380D01*
X70041476Y-65668000D01*
X70089095Y-65715619D01*
X70136714Y-65810857D01*
X70136714Y-65906095D01*
X70089095Y-66048952D01*
X69517666Y-66620380D01*
X70136714Y-66620380D01*
G04 #@! TO.C,C3*
X82399142Y-71032666D02*
X82446761Y-71080285D01*
X82494380Y-71223142D01*
X82494380Y-71318380D01*
X82446761Y-71461238D01*
X82351523Y-71556476D01*
X82256285Y-71604095D01*
X82065809Y-71651714D01*
X81922952Y-71651714D01*
X81732476Y-71604095D01*
X81637238Y-71556476D01*
X81542000Y-71461238D01*
X81494380Y-71318380D01*
X81494380Y-71223142D01*
X81542000Y-71080285D01*
X81589619Y-71032666D01*
X81494380Y-70699333D02*
X81494380Y-70080285D01*
X81875333Y-70413619D01*
X81875333Y-70270761D01*
X81922952Y-70175523D01*
X81970571Y-70127904D01*
X82065809Y-70080285D01*
X82303904Y-70080285D01*
X82399142Y-70127904D01*
X82446761Y-70175523D01*
X82494380Y-70270761D01*
X82494380Y-70556476D01*
X82446761Y-70651714D01*
X82399142Y-70699333D01*
G04 #@! TO.C,C4*
X70081142Y-71032666D02*
X70128761Y-71080285D01*
X70176380Y-71223142D01*
X70176380Y-71318380D01*
X70128761Y-71461238D01*
X70033523Y-71556476D01*
X69938285Y-71604095D01*
X69747809Y-71651714D01*
X69604952Y-71651714D01*
X69414476Y-71604095D01*
X69319238Y-71556476D01*
X69224000Y-71461238D01*
X69176380Y-71318380D01*
X69176380Y-71223142D01*
X69224000Y-71080285D01*
X69271619Y-71032666D01*
X69509714Y-70175523D02*
X70176380Y-70175523D01*
X69128761Y-70413619D02*
X69843047Y-70651714D01*
X69843047Y-70032666D01*
G04 #@! TO.C,C5*
X73383142Y-71032666D02*
X73430761Y-71080285D01*
X73478380Y-71223142D01*
X73478380Y-71318380D01*
X73430761Y-71461238D01*
X73335523Y-71556476D01*
X73240285Y-71604095D01*
X73049809Y-71651714D01*
X72906952Y-71651714D01*
X72716476Y-71604095D01*
X72621238Y-71556476D01*
X72526000Y-71461238D01*
X72478380Y-71318380D01*
X72478380Y-71223142D01*
X72526000Y-71080285D01*
X72573619Y-71032666D01*
X72478380Y-70127904D02*
X72478380Y-70604095D01*
X72954571Y-70651714D01*
X72906952Y-70604095D01*
X72859333Y-70508857D01*
X72859333Y-70270761D01*
X72906952Y-70175523D01*
X72954571Y-70127904D01*
X73049809Y-70080285D01*
X73287904Y-70080285D01*
X73383142Y-70127904D01*
X73430761Y-70175523D01*
X73478380Y-70270761D01*
X73478380Y-70508857D01*
X73430761Y-70604095D01*
X73383142Y-70651714D01*
G04 #@! TO.C,C6*
X83543142Y-70524666D02*
X83590761Y-70572285D01*
X83638380Y-70715142D01*
X83638380Y-70810380D01*
X83590761Y-70953238D01*
X83495523Y-71048476D01*
X83400285Y-71096095D01*
X83209809Y-71143714D01*
X83066952Y-71143714D01*
X82876476Y-71096095D01*
X82781238Y-71048476D01*
X82686000Y-70953238D01*
X82638380Y-70810380D01*
X82638380Y-70715142D01*
X82686000Y-70572285D01*
X82733619Y-70524666D01*
X82638380Y-69667523D02*
X82638380Y-69858000D01*
X82686000Y-69953238D01*
X82733619Y-70000857D01*
X82876476Y-70096095D01*
X83066952Y-70143714D01*
X83447904Y-70143714D01*
X83543142Y-70096095D01*
X83590761Y-70048476D01*
X83638380Y-69953238D01*
X83638380Y-69762761D01*
X83590761Y-69667523D01*
X83543142Y-69619904D01*
X83447904Y-69572285D01*
X83209809Y-69572285D01*
X83114571Y-69619904D01*
X83066952Y-69667523D01*
X83019333Y-69762761D01*
X83019333Y-69953238D01*
X83066952Y-70048476D01*
X83114571Y-70096095D01*
X83209809Y-70143714D01*
G04 #@! TO.C,C7*
X63221142Y-62405666D02*
X63268761Y-62453285D01*
X63316380Y-62596142D01*
X63316380Y-62691380D01*
X63268761Y-62834238D01*
X63173523Y-62929476D01*
X63078285Y-62977095D01*
X62887809Y-63024714D01*
X62744952Y-63024714D01*
X62554476Y-62977095D01*
X62459238Y-62929476D01*
X62364000Y-62834238D01*
X62316380Y-62691380D01*
X62316380Y-62596142D01*
X62364000Y-62453285D01*
X62411619Y-62405666D01*
X62316380Y-62072333D02*
X62316380Y-61405666D01*
X63316380Y-61834238D01*
G04 #@! TO.C,C8*
X61310333Y-51539142D02*
X61262714Y-51586761D01*
X61119857Y-51634380D01*
X61024619Y-51634380D01*
X60881761Y-51586761D01*
X60786523Y-51491523D01*
X60738904Y-51396285D01*
X60691285Y-51205809D01*
X60691285Y-51062952D01*
X60738904Y-50872476D01*
X60786523Y-50777238D01*
X60881761Y-50682000D01*
X61024619Y-50634380D01*
X61119857Y-50634380D01*
X61262714Y-50682000D01*
X61310333Y-50729619D01*
X61881761Y-51062952D02*
X61786523Y-51015333D01*
X61738904Y-50967714D01*
X61691285Y-50872476D01*
X61691285Y-50824857D01*
X61738904Y-50729619D01*
X61786523Y-50682000D01*
X61881761Y-50634380D01*
X62072238Y-50634380D01*
X62167476Y-50682000D01*
X62215095Y-50729619D01*
X62262714Y-50824857D01*
X62262714Y-50872476D01*
X62215095Y-50967714D01*
X62167476Y-51015333D01*
X62072238Y-51062952D01*
X61881761Y-51062952D01*
X61786523Y-51110571D01*
X61738904Y-51158190D01*
X61691285Y-51253428D01*
X61691285Y-51443904D01*
X61738904Y-51539142D01*
X61786523Y-51586761D01*
X61881761Y-51634380D01*
X62072238Y-51634380D01*
X62167476Y-51586761D01*
X62215095Y-51539142D01*
X62262714Y-51443904D01*
X62262714Y-51253428D01*
X62215095Y-51158190D01*
X62167476Y-51110571D01*
X62072238Y-51062952D01*
G04 #@! TO.C,C9*
X61301333Y-55349142D02*
X61253714Y-55396761D01*
X61110857Y-55444380D01*
X61015619Y-55444380D01*
X60872761Y-55396761D01*
X60777523Y-55301523D01*
X60729904Y-55206285D01*
X60682285Y-55015809D01*
X60682285Y-54872952D01*
X60729904Y-54682476D01*
X60777523Y-54587238D01*
X60872761Y-54492000D01*
X61015619Y-54444380D01*
X61110857Y-54444380D01*
X61253714Y-54492000D01*
X61301333Y-54539619D01*
X61777523Y-55444380D02*
X61968000Y-55444380D01*
X62063238Y-55396761D01*
X62110857Y-55349142D01*
X62206095Y-55206285D01*
X62253714Y-55015809D01*
X62253714Y-54634857D01*
X62206095Y-54539619D01*
X62158476Y-54492000D01*
X62063238Y-54444380D01*
X61872761Y-54444380D01*
X61777523Y-54492000D01*
X61729904Y-54539619D01*
X61682285Y-54634857D01*
X61682285Y-54872952D01*
X61729904Y-54968190D01*
X61777523Y-55015809D01*
X61872761Y-55063428D01*
X62063238Y-55063428D01*
X62158476Y-55015809D01*
X62206095Y-54968190D01*
X62253714Y-54872952D01*
G04 #@! TO.C,C10*
X93703142Y-71009857D02*
X93750761Y-71057476D01*
X93798380Y-71200333D01*
X93798380Y-71295571D01*
X93750761Y-71438428D01*
X93655523Y-71533666D01*
X93560285Y-71581285D01*
X93369809Y-71628904D01*
X93226952Y-71628904D01*
X93036476Y-71581285D01*
X92941238Y-71533666D01*
X92846000Y-71438428D01*
X92798380Y-71295571D01*
X92798380Y-71200333D01*
X92846000Y-71057476D01*
X92893619Y-71009857D01*
X93798380Y-70057476D02*
X93798380Y-70628904D01*
X93798380Y-70343190D02*
X92798380Y-70343190D01*
X92941238Y-70438428D01*
X93036476Y-70533666D01*
X93084095Y-70628904D01*
X92798380Y-69438428D02*
X92798380Y-69343190D01*
X92846000Y-69247952D01*
X92893619Y-69200333D01*
X92988857Y-69152714D01*
X93179333Y-69105095D01*
X93417428Y-69105095D01*
X93607904Y-69152714D01*
X93703142Y-69200333D01*
X93750761Y-69247952D01*
X93798380Y-69343190D01*
X93798380Y-69438428D01*
X93750761Y-69533666D01*
X93703142Y-69581285D01*
X93607904Y-69628904D01*
X93417428Y-69676523D01*
X93179333Y-69676523D01*
X92988857Y-69628904D01*
X92893619Y-69581285D01*
X92846000Y-69533666D01*
X92798380Y-69438428D01*
G04 #@! TO.C,C11*
X64136142Y-66525142D02*
X64088523Y-66572761D01*
X63945666Y-66620380D01*
X63850428Y-66620380D01*
X63707571Y-66572761D01*
X63612333Y-66477523D01*
X63564714Y-66382285D01*
X63517095Y-66191809D01*
X63517095Y-66048952D01*
X63564714Y-65858476D01*
X63612333Y-65763238D01*
X63707571Y-65668000D01*
X63850428Y-65620380D01*
X63945666Y-65620380D01*
X64088523Y-65668000D01*
X64136142Y-65715619D01*
X65088523Y-66620380D02*
X64517095Y-66620380D01*
X64802809Y-66620380D02*
X64802809Y-65620380D01*
X64707571Y-65763238D01*
X64612333Y-65858476D01*
X64517095Y-65906095D01*
X66040904Y-66620380D02*
X65469476Y-66620380D01*
X65755190Y-66620380D02*
X65755190Y-65620380D01*
X65659952Y-65763238D01*
X65564714Y-65858476D01*
X65469476Y-65906095D01*
G04 #@! TO.C,C12*
X57633142Y-70746857D02*
X57680761Y-70794476D01*
X57728380Y-70937333D01*
X57728380Y-71032571D01*
X57680761Y-71175428D01*
X57585523Y-71270666D01*
X57490285Y-71318285D01*
X57299809Y-71365904D01*
X57156952Y-71365904D01*
X56966476Y-71318285D01*
X56871238Y-71270666D01*
X56776000Y-71175428D01*
X56728380Y-71032571D01*
X56728380Y-70937333D01*
X56776000Y-70794476D01*
X56823619Y-70746857D01*
X57728380Y-69794476D02*
X57728380Y-70365904D01*
X57728380Y-70080190D02*
X56728380Y-70080190D01*
X56871238Y-70175428D01*
X56966476Y-70270666D01*
X57014095Y-70365904D01*
X56823619Y-69413523D02*
X56776000Y-69365904D01*
X56728380Y-69270666D01*
X56728380Y-69032571D01*
X56776000Y-68937333D01*
X56823619Y-68889714D01*
X56918857Y-68842095D01*
X57014095Y-68842095D01*
X57156952Y-68889714D01*
X57728380Y-69461142D01*
X57728380Y-68842095D01*
G04 #@! TO.C,C13*
X66676142Y-70302143D02*
X66628523Y-70349762D01*
X66485666Y-70397381D01*
X66390428Y-70397381D01*
X66247571Y-70349762D01*
X66152333Y-70254524D01*
X66104714Y-70159286D01*
X66057095Y-69968810D01*
X66057095Y-69825953D01*
X66104714Y-69635477D01*
X66152333Y-69540239D01*
X66247571Y-69445001D01*
X66390428Y-69397381D01*
X66485666Y-69397381D01*
X66628523Y-69445001D01*
X66676142Y-69492620D01*
X67628523Y-70397381D02*
X67057095Y-70397381D01*
X67342809Y-70397381D02*
X67342809Y-69397381D01*
X67247571Y-69540239D01*
X67152333Y-69635477D01*
X67057095Y-69683096D01*
X67961857Y-69397381D02*
X68580904Y-69397381D01*
X68247571Y-69778334D01*
X68390428Y-69778334D01*
X68485666Y-69825953D01*
X68533285Y-69873572D01*
X68580904Y-69968810D01*
X68580904Y-70206905D01*
X68533285Y-70302143D01*
X68485666Y-70349762D01*
X68390428Y-70397381D01*
X68104714Y-70397381D01*
X68009476Y-70349762D01*
X67961857Y-70302143D01*
G04 #@! TO.C,C14*
X90401142Y-71009857D02*
X90448761Y-71057476D01*
X90496380Y-71200333D01*
X90496380Y-71295571D01*
X90448761Y-71438428D01*
X90353523Y-71533666D01*
X90258285Y-71581285D01*
X90067809Y-71628904D01*
X89924952Y-71628904D01*
X89734476Y-71581285D01*
X89639238Y-71533666D01*
X89544000Y-71438428D01*
X89496380Y-71295571D01*
X89496380Y-71200333D01*
X89544000Y-71057476D01*
X89591619Y-71009857D01*
X90496380Y-70057476D02*
X90496380Y-70628904D01*
X90496380Y-70343190D02*
X89496380Y-70343190D01*
X89639238Y-70438428D01*
X89734476Y-70533666D01*
X89782095Y-70628904D01*
X89829714Y-69200333D02*
X90496380Y-69200333D01*
X89448761Y-69438428D02*
X90163047Y-69676523D01*
X90163047Y-69057476D01*
G04 #@! TO.C,C15*
X84456142Y-67793142D02*
X84408523Y-67840761D01*
X84265666Y-67888380D01*
X84170428Y-67888380D01*
X84027571Y-67840761D01*
X83932333Y-67745523D01*
X83884714Y-67650285D01*
X83837095Y-67459809D01*
X83837095Y-67316952D01*
X83884714Y-67126476D01*
X83932333Y-67031238D01*
X84027571Y-66936000D01*
X84170428Y-66888380D01*
X84265666Y-66888380D01*
X84408523Y-66936000D01*
X84456142Y-66983619D01*
X85408523Y-67888380D02*
X84837095Y-67888380D01*
X85122809Y-67888380D02*
X85122809Y-66888380D01*
X85027571Y-67031238D01*
X84932333Y-67126476D01*
X84837095Y-67174095D01*
X86313285Y-66888380D02*
X85837095Y-66888380D01*
X85789476Y-67364571D01*
X85837095Y-67316952D01*
X85932333Y-67269333D01*
X86170428Y-67269333D01*
X86265666Y-67316952D01*
X86313285Y-67364571D01*
X86360904Y-67459809D01*
X86360904Y-67697904D01*
X86313285Y-67793142D01*
X86265666Y-67840761D01*
X86170428Y-67888380D01*
X85932333Y-67888380D01*
X85837095Y-67840761D01*
X85789476Y-67793142D01*
G04 #@! TO.C,C16*
X88875142Y-71009857D02*
X88922761Y-71057476D01*
X88970380Y-71200333D01*
X88970380Y-71295571D01*
X88922761Y-71438428D01*
X88827523Y-71533666D01*
X88732285Y-71581285D01*
X88541809Y-71628904D01*
X88398952Y-71628904D01*
X88208476Y-71581285D01*
X88113238Y-71533666D01*
X88018000Y-71438428D01*
X87970380Y-71295571D01*
X87970380Y-71200333D01*
X88018000Y-71057476D01*
X88065619Y-71009857D01*
X88970380Y-70057476D02*
X88970380Y-70628904D01*
X88970380Y-70343190D02*
X87970380Y-70343190D01*
X88113238Y-70438428D01*
X88208476Y-70533666D01*
X88256095Y-70628904D01*
X87970380Y-69200333D02*
X87970380Y-69390809D01*
X88018000Y-69486047D01*
X88065619Y-69533666D01*
X88208476Y-69628904D01*
X88398952Y-69676523D01*
X88779904Y-69676523D01*
X88875142Y-69628904D01*
X88922761Y-69581285D01*
X88970380Y-69486047D01*
X88970380Y-69295571D01*
X88922761Y-69200333D01*
X88875142Y-69152714D01*
X88779904Y-69105095D01*
X88541809Y-69105095D01*
X88446571Y-69152714D01*
X88398952Y-69200333D01*
X88351333Y-69295571D01*
X88351333Y-69486047D01*
X88398952Y-69581285D01*
X88446571Y-69628904D01*
X88541809Y-69676523D01*
G04 #@! TO.C,C17*
X66667142Y-76049142D02*
X66619523Y-76096761D01*
X66476666Y-76144380D01*
X66381428Y-76144380D01*
X66238571Y-76096761D01*
X66143333Y-76001523D01*
X66095714Y-75906285D01*
X66048095Y-75715809D01*
X66048095Y-75572952D01*
X66095714Y-75382476D01*
X66143333Y-75287238D01*
X66238571Y-75192000D01*
X66381428Y-75144380D01*
X66476666Y-75144380D01*
X66619523Y-75192000D01*
X66667142Y-75239619D01*
X67619523Y-76144380D02*
X67048095Y-76144380D01*
X67333809Y-76144380D02*
X67333809Y-75144380D01*
X67238571Y-75287238D01*
X67143333Y-75382476D01*
X67048095Y-75430095D01*
X67952857Y-75144380D02*
X68619523Y-75144380D01*
X68190952Y-76144380D01*
G04 #@! TO.C,C18*
X43021142Y-50489142D02*
X42973523Y-50536761D01*
X42830666Y-50584380D01*
X42735428Y-50584380D01*
X42592571Y-50536761D01*
X42497333Y-50441523D01*
X42449714Y-50346285D01*
X42402095Y-50155809D01*
X42402095Y-50012952D01*
X42449714Y-49822476D01*
X42497333Y-49727238D01*
X42592571Y-49632000D01*
X42735428Y-49584380D01*
X42830666Y-49584380D01*
X42973523Y-49632000D01*
X43021142Y-49679619D01*
X43973523Y-50584380D02*
X43402095Y-50584380D01*
X43687809Y-50584380D02*
X43687809Y-49584380D01*
X43592571Y-49727238D01*
X43497333Y-49822476D01*
X43402095Y-49870095D01*
X44544952Y-50012952D02*
X44449714Y-49965333D01*
X44402095Y-49917714D01*
X44354476Y-49822476D01*
X44354476Y-49774857D01*
X44402095Y-49679619D01*
X44449714Y-49632000D01*
X44544952Y-49584380D01*
X44735428Y-49584380D01*
X44830666Y-49632000D01*
X44878285Y-49679619D01*
X44925904Y-49774857D01*
X44925904Y-49822476D01*
X44878285Y-49917714D01*
X44830666Y-49965333D01*
X44735428Y-50012952D01*
X44544952Y-50012952D01*
X44449714Y-50060571D01*
X44402095Y-50108190D01*
X44354476Y-50203428D01*
X44354476Y-50393904D01*
X44402095Y-50489142D01*
X44449714Y-50536761D01*
X44544952Y-50584380D01*
X44735428Y-50584380D01*
X44830666Y-50536761D01*
X44878285Y-50489142D01*
X44925904Y-50393904D01*
X44925904Y-50203428D01*
X44878285Y-50108190D01*
X44830666Y-50060571D01*
X44735428Y-50012952D01*
G04 #@! TO.C,C19*
X42791142Y-55315142D02*
X42743523Y-55362761D01*
X42600666Y-55410380D01*
X42505428Y-55410380D01*
X42362571Y-55362761D01*
X42267333Y-55267523D01*
X42219714Y-55172285D01*
X42172095Y-54981809D01*
X42172095Y-54838952D01*
X42219714Y-54648476D01*
X42267333Y-54553238D01*
X42362571Y-54458000D01*
X42505428Y-54410380D01*
X42600666Y-54410380D01*
X42743523Y-54458000D01*
X42791142Y-54505619D01*
X43743523Y-55410380D02*
X43172095Y-55410380D01*
X43457809Y-55410380D02*
X43457809Y-54410380D01*
X43362571Y-54553238D01*
X43267333Y-54648476D01*
X43172095Y-54696095D01*
X44219714Y-55410380D02*
X44410190Y-55410380D01*
X44505428Y-55362761D01*
X44553047Y-55315142D01*
X44648285Y-55172285D01*
X44695904Y-54981809D01*
X44695904Y-54600857D01*
X44648285Y-54505619D01*
X44600666Y-54458000D01*
X44505428Y-54410380D01*
X44314952Y-54410380D01*
X44219714Y-54458000D01*
X44172095Y-54505619D01*
X44124476Y-54600857D01*
X44124476Y-54838952D01*
X44172095Y-54934190D01*
X44219714Y-54981809D01*
X44314952Y-55029428D01*
X44505428Y-55029428D01*
X44600666Y-54981809D01*
X44648285Y-54934190D01*
X44695904Y-54838952D01*
G04 #@! TO.C,C20*
X43054142Y-60683142D02*
X43006523Y-60730761D01*
X42863666Y-60778380D01*
X42768428Y-60778380D01*
X42625571Y-60730761D01*
X42530333Y-60635523D01*
X42482714Y-60540285D01*
X42435095Y-60349809D01*
X42435095Y-60206952D01*
X42482714Y-60016476D01*
X42530333Y-59921238D01*
X42625571Y-59826000D01*
X42768428Y-59778380D01*
X42863666Y-59778380D01*
X43006523Y-59826000D01*
X43054142Y-59873619D01*
X43435095Y-59873619D02*
X43482714Y-59826000D01*
X43577952Y-59778380D01*
X43816047Y-59778380D01*
X43911285Y-59826000D01*
X43958904Y-59873619D01*
X44006523Y-59968857D01*
X44006523Y-60064095D01*
X43958904Y-60206952D01*
X43387476Y-60778380D01*
X44006523Y-60778380D01*
X44625571Y-59778380D02*
X44720809Y-59778380D01*
X44816047Y-59826000D01*
X44863666Y-59873619D01*
X44911285Y-59968857D01*
X44958904Y-60159333D01*
X44958904Y-60397428D01*
X44911285Y-60587904D01*
X44863666Y-60683142D01*
X44816047Y-60730761D01*
X44720809Y-60778380D01*
X44625571Y-60778380D01*
X44530333Y-60730761D01*
X44482714Y-60683142D01*
X44435095Y-60587904D01*
X44387476Y-60397428D01*
X44387476Y-60159333D01*
X44435095Y-59968857D01*
X44482714Y-59873619D01*
X44530333Y-59826000D01*
X44625571Y-59778380D01*
G04 #@! TO.C,C21*
X57889142Y-49655857D02*
X57936761Y-49703476D01*
X57984380Y-49846333D01*
X57984380Y-49941571D01*
X57936761Y-50084428D01*
X57841523Y-50179666D01*
X57746285Y-50227285D01*
X57555809Y-50274904D01*
X57412952Y-50274904D01*
X57222476Y-50227285D01*
X57127238Y-50179666D01*
X57032000Y-50084428D01*
X56984380Y-49941571D01*
X56984380Y-49846333D01*
X57032000Y-49703476D01*
X57079619Y-49655857D01*
X57079619Y-49274904D02*
X57032000Y-49227285D01*
X56984380Y-49132047D01*
X56984380Y-48893952D01*
X57032000Y-48798714D01*
X57079619Y-48751095D01*
X57174857Y-48703476D01*
X57270095Y-48703476D01*
X57412952Y-48751095D01*
X57984380Y-49322523D01*
X57984380Y-48703476D01*
X57984380Y-47751095D02*
X57984380Y-48322523D01*
X57984380Y-48036809D02*
X56984380Y-48036809D01*
X57127238Y-48132047D01*
X57222476Y-48227285D01*
X57270095Y-48322523D01*
G04 #@! TO.C,C22*
X49625142Y-50489142D02*
X49577523Y-50536761D01*
X49434666Y-50584380D01*
X49339428Y-50584380D01*
X49196571Y-50536761D01*
X49101333Y-50441523D01*
X49053714Y-50346285D01*
X49006095Y-50155809D01*
X49006095Y-50012952D01*
X49053714Y-49822476D01*
X49101333Y-49727238D01*
X49196571Y-49632000D01*
X49339428Y-49584380D01*
X49434666Y-49584380D01*
X49577523Y-49632000D01*
X49625142Y-49679619D01*
X50006095Y-49679619D02*
X50053714Y-49632000D01*
X50148952Y-49584380D01*
X50387047Y-49584380D01*
X50482285Y-49632000D01*
X50529904Y-49679619D01*
X50577523Y-49774857D01*
X50577523Y-49870095D01*
X50529904Y-50012952D01*
X49958476Y-50584380D01*
X50577523Y-50584380D01*
X50958476Y-49679619D02*
X51006095Y-49632000D01*
X51101333Y-49584380D01*
X51339428Y-49584380D01*
X51434666Y-49632000D01*
X51482285Y-49679619D01*
X51529904Y-49774857D01*
X51529904Y-49870095D01*
X51482285Y-50012952D01*
X50910857Y-50584380D01*
X51529904Y-50584380D01*
G04 #@! TO.C,D1*
X55912904Y-51634380D02*
X55912904Y-50634380D01*
X56151000Y-50634380D01*
X56293857Y-50682000D01*
X56389095Y-50777238D01*
X56436714Y-50872476D01*
X56484333Y-51062952D01*
X56484333Y-51205809D01*
X56436714Y-51396285D01*
X56389095Y-51491523D01*
X56293857Y-51586761D01*
X56151000Y-51634380D01*
X55912904Y-51634380D01*
X57436714Y-51634380D02*
X56865285Y-51634380D01*
X57151000Y-51634380D02*
X57151000Y-50634380D01*
X57055761Y-50777238D01*
X56960523Y-50872476D01*
X56865285Y-50920095D01*
G04 #@! TO.C,IC1*
D11*
X55122838Y-30038523D02*
X55122838Y-28768523D01*
X56453314Y-29917571D02*
X56392838Y-29978047D01*
X56211409Y-30038523D01*
X56090457Y-30038523D01*
X55909028Y-29978047D01*
X55788076Y-29857095D01*
X55727600Y-29736142D01*
X55667123Y-29494238D01*
X55667123Y-29312809D01*
X55727600Y-29070904D01*
X55788076Y-28949952D01*
X55909028Y-28829000D01*
X56090457Y-28768523D01*
X56211409Y-28768523D01*
X56392838Y-28829000D01*
X56453314Y-28889476D01*
X57662838Y-30038523D02*
X56937123Y-30038523D01*
X57299980Y-30038523D02*
X57299980Y-28768523D01*
X57179028Y-28949952D01*
X57058076Y-29070904D01*
X56937123Y-29131380D01*
G04 #@! TO.C,IC2*
X55353239Y-64405524D02*
X55353239Y-63135524D01*
X56683715Y-64284572D02*
X56623239Y-64345048D01*
X56441810Y-64405524D01*
X56320858Y-64405524D01*
X56139429Y-64345048D01*
X56018477Y-64224096D01*
X55958001Y-64103143D01*
X55897524Y-63861239D01*
X55897524Y-63679810D01*
X55958001Y-63437905D01*
X56018477Y-63316953D01*
X56139429Y-63196001D01*
X56320858Y-63135524D01*
X56441810Y-63135524D01*
X56623239Y-63196001D01*
X56683715Y-63256477D01*
X57167524Y-63256477D02*
X57228001Y-63196001D01*
X57348953Y-63135524D01*
X57651334Y-63135524D01*
X57772286Y-63196001D01*
X57832762Y-63256477D01*
X57893239Y-63377429D01*
X57893239Y-63498381D01*
X57832762Y-63679810D01*
X57107048Y-64405524D01*
X57893239Y-64405524D01*
G04 #@! TO.C,J1*
D15*
X44878666Y-66584380D02*
X44878666Y-67298666D01*
X44831047Y-67441523D01*
X44735809Y-67536761D01*
X44592952Y-67584380D01*
X44497714Y-67584380D01*
X45878666Y-67584380D02*
X45307238Y-67584380D01*
X45592952Y-67584380D02*
X45592952Y-66584380D01*
X45497714Y-66727238D01*
X45402476Y-66822476D01*
X45307238Y-66870095D01*
G04 #@! TO.C,J2*
X88904380Y-75009333D02*
X89618666Y-75009333D01*
X89761523Y-75056952D01*
X89856761Y-75152190D01*
X89904380Y-75295047D01*
X89904380Y-75390285D01*
X88999619Y-74580761D02*
X88952000Y-74533142D01*
X88904380Y-74437904D01*
X88904380Y-74199809D01*
X88952000Y-74104571D01*
X88999619Y-74056952D01*
X89094857Y-74009333D01*
X89190095Y-74009333D01*
X89332952Y-74056952D01*
X89904380Y-74628380D01*
X89904380Y-74009333D01*
G04 #@! TO.C,J3*
X93055667Y-27141381D02*
X93055667Y-27855667D01*
X93008048Y-27998524D01*
X92912810Y-28093762D01*
X92769953Y-28141381D01*
X92674715Y-28141381D01*
X93436620Y-27141381D02*
X94055667Y-27141381D01*
X93722334Y-27522334D01*
X93865191Y-27522334D01*
X93960429Y-27569953D01*
X94008048Y-27617572D01*
X94055667Y-27712810D01*
X94055667Y-27950905D01*
X94008048Y-28046143D01*
X93960429Y-28093762D01*
X93865191Y-28141381D01*
X93579477Y-28141381D01*
X93484239Y-28093762D01*
X93436620Y-28046143D01*
G04 #@! TO.C,J4*
X89328666Y-27094380D02*
X89328666Y-27808666D01*
X89281047Y-27951523D01*
X89185809Y-28046761D01*
X89042952Y-28094380D01*
X88947714Y-28094380D01*
X90233428Y-27427714D02*
X90233428Y-28094380D01*
X89995333Y-27046761D02*
X89757238Y-27761047D01*
X90376285Y-27761047D01*
G04 #@! TO.C,J5*
X45636380Y-24717333D02*
X46350666Y-24717333D01*
X46493523Y-24764952D01*
X46588761Y-24860190D01*
X46636380Y-25003047D01*
X46636380Y-25098285D01*
X45636380Y-23764952D02*
X45636380Y-24241142D01*
X46112571Y-24288761D01*
X46064952Y-24241142D01*
X46017333Y-24145904D01*
X46017333Y-23907809D01*
X46064952Y-23812571D01*
X46112571Y-23764952D01*
X46207809Y-23717333D01*
X46445904Y-23717333D01*
X46541142Y-23764952D01*
X46588761Y-23812571D01*
X46636380Y-23907809D01*
X46636380Y-24145904D01*
X46588761Y-24241142D01*
X46541142Y-24288761D01*
G04 #@! TO.C,J6*
X81708666Y-26967380D02*
X81708666Y-27681666D01*
X81661047Y-27824523D01*
X81565809Y-27919761D01*
X81422952Y-27967380D01*
X81327714Y-27967380D01*
X82613428Y-26967380D02*
X82422952Y-26967380D01*
X82327714Y-27015000D01*
X82280095Y-27062619D01*
X82184857Y-27205476D01*
X82137238Y-27395952D01*
X82137238Y-27776904D01*
X82184857Y-27872142D01*
X82232476Y-27919761D01*
X82327714Y-27967380D01*
X82518190Y-27967380D01*
X82613428Y-27919761D01*
X82661047Y-27872142D01*
X82708666Y-27776904D01*
X82708666Y-27538809D01*
X82661047Y-27443571D01*
X82613428Y-27395952D01*
X82518190Y-27348333D01*
X82327714Y-27348333D01*
X82232476Y-27395952D01*
X82184857Y-27443571D01*
X82137238Y-27538809D01*
G04 #@! TO.C,J7*
X53686380Y-30417333D02*
X54400666Y-30417333D01*
X54543523Y-30464952D01*
X54638761Y-30560190D01*
X54686380Y-30703047D01*
X54686380Y-30798285D01*
X53686380Y-30036380D02*
X53686380Y-29369714D01*
X54686380Y-29798285D01*
G04 #@! TO.C,J8*
X45132666Y-39446380D02*
X45132666Y-40160666D01*
X45085047Y-40303523D01*
X44989809Y-40398761D01*
X44846952Y-40446380D01*
X44751714Y-40446380D01*
X45751714Y-39874952D02*
X45656476Y-39827333D01*
X45608857Y-39779714D01*
X45561238Y-39684476D01*
X45561238Y-39636857D01*
X45608857Y-39541619D01*
X45656476Y-39494000D01*
X45751714Y-39446380D01*
X45942190Y-39446380D01*
X46037428Y-39494000D01*
X46085047Y-39541619D01*
X46132666Y-39636857D01*
X46132666Y-39684476D01*
X46085047Y-39779714D01*
X46037428Y-39827333D01*
X45942190Y-39874952D01*
X45751714Y-39874952D01*
X45656476Y-39922571D01*
X45608857Y-39970190D01*
X45561238Y-40065428D01*
X45561238Y-40255904D01*
X45608857Y-40351142D01*
X45656476Y-40398761D01*
X45751714Y-40446380D01*
X45942190Y-40446380D01*
X46037428Y-40398761D01*
X46085047Y-40351142D01*
X46132666Y-40255904D01*
X46132666Y-40065428D01*
X46085047Y-39970190D01*
X46037428Y-39922571D01*
X45942190Y-39874952D01*
G04 #@! TO.C,L1*
X76652380Y-66977666D02*
X76652380Y-67453857D01*
X75652380Y-67453857D01*
X76652380Y-66120523D02*
X76652380Y-66691952D01*
X76652380Y-66406238D02*
X75652380Y-66406238D01*
X75795238Y-66501476D01*
X75890476Y-66596714D01*
X75938095Y-66691952D01*
G04 #@! TO.C,L2*
X64612333Y-62936380D02*
X64136142Y-62936380D01*
X64136142Y-61936380D01*
X64898047Y-62031619D02*
X64945666Y-61984000D01*
X65040904Y-61936380D01*
X65279000Y-61936380D01*
X65374238Y-61984000D01*
X65421857Y-62031619D01*
X65469476Y-62126857D01*
X65469476Y-62222095D01*
X65421857Y-62364952D01*
X64850428Y-62936380D01*
X65469476Y-62936380D01*
G04 #@! TO.C,L3*
X77049333Y-76016380D02*
X76573142Y-76016380D01*
X76573142Y-75016380D01*
X77287428Y-75016380D02*
X77906476Y-75016380D01*
X77573142Y-75397333D01*
X77716000Y-75397333D01*
X77811238Y-75444952D01*
X77858857Y-75492571D01*
X77906476Y-75587809D01*
X77906476Y-75825904D01*
X77858857Y-75921142D01*
X77811238Y-75968761D01*
X77716000Y-76016380D01*
X77430285Y-76016380D01*
X77335047Y-75968761D01*
X77287428Y-75921142D01*
G04 #@! TO.C,L4*
X59532333Y-67508380D02*
X59056142Y-67508380D01*
X59056142Y-66508380D01*
X60294238Y-66841714D02*
X60294238Y-67508380D01*
X60056142Y-66460761D02*
X59818047Y-67175047D01*
X60437095Y-67175047D01*
G04 #@! TO.C,L5*
X71969333Y-76016380D02*
X71493142Y-76016380D01*
X71493142Y-75016380D01*
X72778857Y-75016380D02*
X72302666Y-75016380D01*
X72255047Y-75492571D01*
X72302666Y-75444952D01*
X72397904Y-75397333D01*
X72636000Y-75397333D01*
X72731238Y-75444952D01*
X72778857Y-75492571D01*
X72826476Y-75587809D01*
X72826476Y-75825904D01*
X72778857Y-75921142D01*
X72731238Y-75968761D01*
X72636000Y-76016380D01*
X72397904Y-76016380D01*
X72302666Y-75968761D01*
X72255047Y-75921142D01*
G04 #@! TO.C,L6*
X50134333Y-58744380D02*
X49658142Y-58744380D01*
X49658142Y-57744380D01*
X50896238Y-57744380D02*
X50705761Y-57744380D01*
X50610523Y-57792000D01*
X50562904Y-57839619D01*
X50467666Y-57982476D01*
X50420047Y-58172952D01*
X50420047Y-58553904D01*
X50467666Y-58649142D01*
X50515285Y-58696761D01*
X50610523Y-58744380D01*
X50801000Y-58744380D01*
X50896238Y-58696761D01*
X50943857Y-58649142D01*
X50991476Y-58553904D01*
X50991476Y-58315809D01*
X50943857Y-58220571D01*
X50896238Y-58172952D01*
X50801000Y-58125333D01*
X50610523Y-58125333D01*
X50515285Y-58172952D01*
X50467666Y-58220571D01*
X50420047Y-58315809D01*
G04 #@! TO.C,Q1*
D11*
X50171047Y-61655476D02*
X50050095Y-61595000D01*
X49929142Y-61474047D01*
X49747714Y-61292619D01*
X49626761Y-61232142D01*
X49505809Y-61232142D01*
X49566285Y-61534523D02*
X49445333Y-61474047D01*
X49324380Y-61353095D01*
X49263904Y-61111190D01*
X49263904Y-60687857D01*
X49324380Y-60445952D01*
X49445333Y-60325000D01*
X49566285Y-60264523D01*
X49808190Y-60264523D01*
X49929142Y-60325000D01*
X50050095Y-60445952D01*
X50110571Y-60687857D01*
X50110571Y-61111190D01*
X50050095Y-61353095D01*
X49929142Y-61474047D01*
X49808190Y-61534523D01*
X49566285Y-61534523D01*
X51320095Y-61534523D02*
X50594380Y-61534523D01*
X50957238Y-61534523D02*
X50957238Y-60264523D01*
X50836285Y-60445952D01*
X50715333Y-60566904D01*
X50594380Y-60627380D01*
G04 #@! TO.C,R1*
D15*
X56484333Y-55444380D02*
X56151000Y-54968190D01*
X55912904Y-55444380D02*
X55912904Y-54444380D01*
X56293857Y-54444380D01*
X56389095Y-54492000D01*
X56436714Y-54539619D01*
X56484333Y-54634857D01*
X56484333Y-54777714D01*
X56436714Y-54872952D01*
X56389095Y-54920571D01*
X56293857Y-54968190D01*
X55912904Y-54968190D01*
X57436714Y-55444380D02*
X56865285Y-55444380D01*
X57151000Y-55444380D02*
X57151000Y-54444380D01*
X57055761Y-54587238D01*
X56960523Y-54682476D01*
X56865285Y-54730095D01*
G04 #@! TO.C,R2*
X56466333Y-59254380D02*
X56133000Y-58778190D01*
X55894904Y-59254380D02*
X55894904Y-58254380D01*
X56275857Y-58254380D01*
X56371095Y-58302000D01*
X56418714Y-58349619D01*
X56466333Y-58444857D01*
X56466333Y-58587714D01*
X56418714Y-58682952D01*
X56371095Y-58730571D01*
X56275857Y-58778190D01*
X55894904Y-58778190D01*
X56847285Y-58349619D02*
X56894904Y-58302000D01*
X56990142Y-58254380D01*
X57228238Y-58254380D01*
X57323476Y-58302000D01*
X57371095Y-58349619D01*
X57418714Y-58444857D01*
X57418714Y-58540095D01*
X57371095Y-58682952D01*
X56799666Y-59254380D01*
X57418714Y-59254380D01*
G04 #@! TO.C,U1*
X75692095Y-52944780D02*
X75692095Y-53754304D01*
X75739714Y-53849542D01*
X75787333Y-53897161D01*
X75882571Y-53944780D01*
X76073047Y-53944780D01*
X76168285Y-53897161D01*
X76215904Y-53849542D01*
X76263523Y-53754304D01*
X76263523Y-52944780D01*
X77263523Y-53944780D02*
X76692095Y-53944780D01*
X76977809Y-53944780D02*
X76977809Y-52944780D01*
X76882571Y-53087638D01*
X76787333Y-53182876D01*
X76692095Y-53230495D01*
G04 #@! TO.C,Y1*
X82548190Y-67278190D02*
X83024380Y-67278190D01*
X82024380Y-67611523D02*
X82548190Y-67278190D01*
X82024380Y-66944857D01*
X83024380Y-66087714D02*
X83024380Y-66659142D01*
X83024380Y-66373428D02*
X82024380Y-66373428D01*
X82167238Y-66468666D01*
X82262476Y-66563904D01*
X82310095Y-66659142D01*
G04 #@! TD*
M02*
