M48
;DRILL file {KiCad (5.0.0)} date 04/02/19 14:37:57
;FORMAT={-:-/ absolute / metric / decimal}
FMAT,2
METRIC,TZ
T1C0.100
%
G90
G05
M71
T1
X47.752Y-49.784
X48.768Y-50.8
X51.308Y-45.466
X53.086Y-28.448
X57.404Y-45.72
X58.928Y-41.656
X59.69Y-61.976
X63.246Y-45.72
X64.516Y-51.308
X67.056Y-66.548
X67.056Y-68.834
X71.882Y-37.338
X75.946Y-41.148
X75.946Y-62.992
X76.454Y-72.644
X76.626Y-43.942
X76.962Y-58.42
X77.216Y-29.464
X79.866Y-53.484
X80.518Y-53.848
X80.518Y-68.834
X81.28Y-35.306
X81.28Y-64.77
X82.042Y-55.118
X83.566Y-64.516
X83.566Y-68.834
X85.852Y-30.734
T0
M30
